<?xml version="1.0" encoding="UTF-8"?>
<svg version="1.1" xmlns="http://www.w3.org/2000/svg" width="466" height="466">
<path d="M0 0 C1.14275391 -0.00386719 1.14275391 -0.00386719 2.30859375 -0.0078125 C4.51565859 0.12223985 6.44219276 0.51643801 8.5625 1.125 C8.5625 1.785 8.5625 2.445 8.5625 3.125 C9.160625 3.228125 9.75875 3.33125 10.375 3.4375 C12.92566765 4.2391384 13.92941995 5.02532564 15.5625 7.125 C16.67926103 10.48288011 16.69622333 13.66763766 16.6875 17.1875 C16.69007813 18.23035156 16.69265625 19.27320313 16.6953125 20.34765625 C16.5625 23.125 16.5625 23.125 15.5625 26.125 C14.9025 26.125 14.2425 26.125 13.5625 26.125 C13.2325 27.115 12.9025 28.105 12.5625 29.125 C11.9025 29.125 11.2425 29.125 10.5625 29.125 C10.2325 30.115 9.9025 31.105 9.5625 32.125 C8.2425 32.125 6.9225 32.125 5.5625 32.125 C5.5625 32.785 5.5625 33.445 5.5625 34.125 C4.57507813 34.15078125 3.58765625 34.1765625 2.5703125 34.203125 C1.28898437 34.25984375 0.00765625 34.3165625 -1.3125 34.375 C-2.58867187 34.42140625 -3.86484375 34.4678125 -5.1796875 34.515625 C-6.79230469 34.81726562 -6.79230469 34.81726562 -8.4375 35.125 C-9.81550258 37.05101689 -9.81550258 37.05101689 -10.4375 39.125 C-11.76344105 39.48662029 -13.09688457 39.82228039 -14.4375 40.125 C-14.7675 41.115 -15.0975 42.105 -15.4375 43.125 C-16.0975 43.125 -16.7575 43.125 -17.4375 43.125 C-17.4375 43.785 -17.4375 44.445 -17.4375 45.125 C-19.20707906 47.4533935 -20.25333516 48.07788806 -23.125 48.8125 C-24.2696875 48.9671875 -24.2696875 48.9671875 -25.4375 49.125 C-25.499375 49.7025 -25.56125 50.28 -25.625 50.875 C-26.77134174 54.04948483 -28.69706842 55.25348575 -31.4375 57.125 C-32.0975 57.125 -32.7575 57.125 -33.4375 57.125 C-33.7675 58.115 -34.0975 59.105 -34.4375 60.125 C-35.0975 60.125 -35.7575 60.125 -36.4375 60.125 C-36.499375 60.7025 -36.56125 61.28 -36.625 61.875 C-37.77134174 65.04948483 -39.69706842 66.25348575 -42.4375 68.125 C-43.0975 68.125 -43.7575 68.125 -44.4375 68.125 C-44.4375 69.115 -44.4375 70.105 -44.4375 71.125 C-43.839375 71.269375 -43.24125 71.41375 -42.625 71.5625 C-40.87599596 72.0122439 -39.15072977 72.55392341 -37.4375 73.125 C-37.1075 73.785 -36.7775 74.445 -36.4375 75.125 C-35.4475 75.455 -34.4575 75.785 -33.4375 76.125 C-33.4375 76.785 -33.4375 77.445 -33.4375 78.125 C-31.7875 78.455 -30.1375 78.785 -28.4375 79.125 C-28.4375 79.785 -28.4375 80.445 -28.4375 81.125 C-27.695 81.3725 -26.9525 81.62 -26.1875 81.875 C-23.20726913 83.22965039 -21.53830748 84.6351541 -19.4375 87.125 C-19.4375 87.785 -19.4375 88.445 -19.4375 89.125 C-17.7875 89.455 -16.1375 89.785 -14.4375 90.125 C-14.4375 90.785 -14.4375 91.445 -14.4375 92.125 C-13.4475 92.455 -12.4575 92.785 -11.4375 93.125 C-11.4375 93.785 -11.4375 94.445 -11.4375 95.125 C-10.4475 95.455 -9.4575 95.785 -8.4375 96.125 C-8.4375 96.785 -8.4375 97.445 -8.4375 98.125 C-7.7775 98.125 -7.1175 98.125 -6.4375 98.125 C-6.4375 98.785 -6.4375 99.445 -6.4375 100.125 C-5.4475 100.455 -4.4575 100.785 -3.4375 101.125 C-3.4375 101.785 -3.4375 102.445 -3.4375 103.125 C-2.4475 103.455 -1.4575 103.785 -0.4375 104.125 C-0.4375 104.785 -0.4375 105.445 -0.4375 106.125 C0.5525 106.455 1.5425 106.785 2.5625 107.125 C2.5625 107.785 2.5625 108.445 2.5625 109.125 C3.5525 109.455 4.5425 109.785 5.5625 110.125 C5.5625 110.785 5.5625 111.445 5.5625 112.125 C6.2225 112.125 6.8825 112.125 7.5625 112.125 C8.58861949 113.77571396 9.58558143 115.44470006 10.5625 117.125 C11.3978125 117.929375 11.3978125 117.929375 12.25 118.75 C13.5625 120.125 13.5625 120.125 13.5625 123.125 C14.2225 123.125 14.8825 123.125 15.5625 123.125 C15.8925 124.775 16.2225 126.425 16.5625 128.125 C17.8825 128.455 19.2025 128.785 20.5625 129.125 C20.8925 130.775 21.2225 132.425 21.5625 134.125 C22.2225 134.125 22.8825 134.125 23.5625 134.125 C23.8925 135.775 24.2225 137.425 24.5625 139.125 C25.2225 139.125 25.8825 139.125 26.5625 139.125 C26.8925 141.105 27.2225 143.085 27.5625 145.125 C28.2225 145.125 28.8825 145.125 29.5625 145.125 C29.8925 147.105 30.2225 149.085 30.5625 151.125 C31.2225 151.125 31.8825 151.125 32.5625 151.125 C34.71555957 154.98256507 35.95503254 157.67629785 35.5625 162.125 C36.2225 162.125 36.8825 162.125 37.5625 162.125 C37.8925 164.765 38.2225 167.405 38.5625 170.125 C39.2225 170.125 39.8825 170.125 40.5625 170.125 C40.8925 172.765 41.2225 175.405 41.5625 178.125 C42.2225 178.125 42.8825 178.125 43.5625 178.125 C47.00669134 189.64664009 47.00669134 189.64664009 46.5625 195.125 C47.2225 195.125 47.8825 195.125 48.5625 195.125 C48.69527344 196.12402344 48.82804687 197.12304688 48.96484375 198.15234375 C49.14144531 199.44269531 49.31804687 200.73304688 49.5 202.0625 C49.67402344 203.35027344 49.84804688 204.63804687 50.02734375 205.96484375 C50.22412423 208.97966313 50.22412423 208.97966313 51.5625 210.125 C52.71121998 217.77987205 52.71016526 225.5356312 52.6953125 233.2578125 C52.69674759 234.93373978 52.69674759 234.93373978 52.69821167 236.64352417 C52.69888761 238.98809872 52.69707457 241.33267521 52.69287109 243.67724609 C52.68750434 247.24711332 52.69284137 250.81685533 52.69921875 254.38671875 C52.69855806 256.67708361 52.69727709 258.96744839 52.6953125 261.2578125 C52.69733673 262.31428986 52.69936096 263.37076721 52.70144653 264.45925903 C52.68271912 270.42947357 52.33713878 276.20405197 51.5625 282.125 C50.9025 282.125 50.2425 282.125 49.5625 282.125 C49.583125 283.32125 49.60375 284.5175 49.625 285.75 C49.63132571 289.30504869 49.26138875 292.63055624 48.5625 296.125 C47.9025 296.125 47.2425 296.125 46.5625 296.125 C46.51351563 296.72828125 46.46453125 297.3315625 46.4140625 297.953125 C46.33929688 298.75234375 46.26453125 299.5515625 46.1875 300.375 C46.11789062 301.16390625 46.04828125 301.9528125 45.9765625 302.765625 C45.54742887 305.210877 44.77649362 306.97336903 43.5625 309.125 C42.9025 309.125 42.2425 309.125 41.5625 309.125 C41.2325 311.105 40.9025 313.085 40.5625 315.125 C39.9025 315.125 39.2425 315.125 38.5625 315.125 C38.500625 315.8675 38.43875 316.61 38.375 317.375 C37.31100088 320.97622777 35.64879328 322.09256296 32.5625 324.125 C31.9025 324.125 31.2425 324.125 30.5625 324.125 C30.2325 325.115 29.9025 326.105 29.5625 327.125 C28.9025 327.125 28.2425 327.125 27.5625 327.125 C27.2325 328.445 26.9025 329.765 26.5625 331.125 C23.9225 331.455 21.2825 331.785 18.5625 332.125 C18.5625 332.785 18.5625 333.445 18.5625 334.125 C17.07085327 334.20802368 17.07085327 334.20802368 15.54907227 334.29272461 C11.87187424 334.49862652 8.19505072 334.71065079 4.51831055 334.92456055 C2.92465658 335.01641146 1.33090503 335.10658481 -0.26293945 335.19506836 C-2.54926635 335.32228394 -4.83517843 335.45545965 -7.12109375 335.58984375 C-8.1961039 335.64772316 -8.1961039 335.64772316 -9.29283142 335.70677185 C-12.65482982 335.637114 -12.65482982 335.637114 -15.4375 337.125 C-19.44354698 337.50920407 -23.47870561 337.5579353 -27.5 337.6875 C-28.75449951 337.7299585 -30.00899902 337.77241699 -31.30151367 337.81616211 C-49.00654445 338.36760297 -66.72643997 338.21251189 -84.4375 338.125 C-84.3303064 339.86861816 -84.3303064 339.86861816 -84.22094727 341.64746094 C-83.43642295 355.23250332 -83.31799194 368.77051009 -83.375 382.375 C-83.38003323 384.49999893 -83.38459287 386.62499903 -83.38867188 388.75 C-83.39951421 393.87502993 -83.41667449 399.00000132 -83.4375 404.125 C-82.52613281 404.09470703 -81.61476563 404.06441406 -80.67578125 404.03320312 C-61.88767535 403.42562756 -43.11114983 403.0189329 -24.3125 403 C-22.99499756 402.99625366 -22.99499756 402.99625366 -21.65087891 402.99243164 C-19.16044074 402.98658554 -16.67012676 402.98799802 -14.1796875 402.9921875 C-13.43758026 402.99020355 -12.69547302 402.9882196 -11.93087769 402.98617554 C-8.82515336 403.00033684 -6.40755872 403.13498043 -3.4375 404.125 C-3.4375 404.785 -3.4375 405.445 -3.4375 406.125 C-1.7875 406.455 -0.1375 406.785 1.5625 407.125 C1.8925 408.775 2.2225 410.425 2.5625 412.125 C3.2225 412.125 3.8825 412.125 4.5625 412.125 C4.5625 413.115 4.5625 414.105 4.5625 415.125 C16.4425 415.125 28.3225 415.125 40.5625 415.125 C40.5625 415.785 40.5625 416.445 40.5625 417.125 C42.5425 417.455 44.5225 417.785 46.5625 418.125 C46.5625 418.785 46.5625 419.445 46.5625 420.125 C47.325625 420.228125 48.08875 420.33125 48.875 420.4375 C51.82001284 421.19087538 52.81459356 421.67793098 54.5625 424.125 C55.25 426.8125 55.25 426.8125 55.5625 429.125 C56.2225 429.125 56.8825 429.125 57.5625 429.125 C58.071283 430.68466218 58.56913469 432.24789241 59.0625 433.8125 C59.48015625 435.11767578 59.48015625 435.11767578 59.90625 436.44921875 C60.5625 439.125 60.5625 439.125 60.5625 444.125 C-87.9375 444.125 -236.4375 444.125 -389.4375 444.125 C-389.4375 439.72214577 -389.17484147 437.92543446 -387.4375 434.125 C-386.7775 434.125 -386.1175 434.125 -385.4375 434.125 C-385.39625 433.279375 -385.355 432.43375 -385.3125 431.5625 C-384.15493446 427.01492111 -381.96814924 424.1826436 -378.4375 421.125 C-375.5625 420.1875 -375.5625 420.1875 -373.4375 420.125 C-373.4375 419.465 -373.4375 418.805 -373.4375 418.125 C-368.98422363 417.01264315 -364.63301227 416.99645129 -360.07421875 417.02734375 C-358.88624443 417.02946617 -358.88624443 417.02946617 -357.67427063 417.03163147 C-355.15780781 417.03720543 -352.64143569 417.04975307 -350.125 417.0625 C-348.41341275 417.06751837 -346.70182409 417.07208069 -344.99023438 417.07617188 C-340.80595492 417.08716632 -336.62174281 417.10441293 -332.4375 417.125 C-332.00824219 416.15820312 -332.00824219 416.15820312 -331.5703125 415.171875 C-330.4375 413.125 -330.4375 413.125 -328.3125 412.375 C-327.69375 412.2925 -327.075 412.21 -326.4375 412.125 C-326.4375 411.465 -326.4375 410.805 -326.4375 410.125 C-322.0416313 409.27912901 -317.89602394 409.00328109 -313.42236328 409.01147461 C-312.74849075 409.01132858 -312.07461823 409.01118256 -311.38032532 409.0110321 C-309.17278727 409.01172379 -306.96533564 409.01948103 -304.7578125 409.02734375 C-303.21939134 409.02921058 -301.68096958 409.03063323 -300.14254761 409.03163147 C-296.10825945 409.03543581 -292.07400773 409.04524816 -288.03973389 409.05633545 C-283.91711927 409.0665945 -279.79449872 409.07113869 -275.671875 409.07617188 C-267.59373335 409.08687243 -259.51562122 409.10392365 -251.4375 409.125 C-251.4375 408.465 -251.4375 407.805 -251.4375 407.125 C-250.1175 406.795 -248.7975 406.465 -247.4375 406.125 C-247.7675 405.795 -248.0975 405.465 -248.4375 405.125 C-248.5315067 403.16130847 -248.55493381 401.19420801 -248.55102539 399.22827148 C-248.55094986 397.96703964 -248.55087433 396.7058078 -248.55079651 395.40635681 C-248.5456891 394.01960206 -248.54047309 392.63284771 -248.53515625 391.24609375 C-248.53329201 389.83504791 -248.53186814 388.42400143 -248.53086853 387.01295471 C-248.52704379 383.29259465 -248.5172139 379.5722734 -248.50616455 375.85192871 C-248.49594948 372.05819219 -248.49137071 368.26444942 -248.48632812 364.47070312 C-248.47559158 357.02211769 -248.4585157 349.57356428 -248.4375 342.125 C-249.46735519 342.15826385 -250.49721039 342.19152771 -251.55827332 342.22579956 C-274.43045777 342.95425209 -297.29517821 343.23659684 -320.17770767 343.24838257 C-322.25156371 343.25000122 -324.32540879 343.2535629 -326.39926147 343.25756836 C-330.31436343 343.26452424 -334.2294244 343.2619814 -338.14453125 343.2578125 C-339.32822296 343.25979645 -340.51191467 343.2617804 -341.73147583 343.26382446 C-342.82144867 343.26071259 -343.91142151 343.25760071 -345.03442383 343.25439453 C-346.46109123 343.25320114 -346.46109123 343.25320114 -347.9165802 343.25198364 C-350.23811448 343.13504344 -352.21550255 342.78253714 -354.4375 342.125 C-354.4375 341.465 -354.4375 340.805 -354.4375 340.125 C-355.5821875 340.2178125 -355.5821875 340.2178125 -356.75 340.3125 C-359.4375 340.125 -359.4375 340.125 -361.25 338.75 C-362.4375 337.125 -362.4375 337.125 -362.4375 335.125 C-363.4275 334.795 -364.4175 334.465 -365.4375 334.125 C-365.4375 333.465 -365.4375 332.805 -365.4375 332.125 C-366.4275 331.795 -367.4175 331.465 -368.4375 331.125 C-368.4375 330.465 -368.4375 329.805 -368.4375 329.125 C-369.0975 329.125 -369.7575 329.125 -370.4375 329.125 C-372.0625 327.8125 -372.0625 327.8125 -373.4375 326.125 C-373.4375 325.135 -373.4375 324.145 -373.4375 323.125 C-374.0975 323.125 -374.7575 323.125 -375.4375 323.125 C-375.7675 321.475 -376.0975 319.825 -376.4375 318.125 C-377.0975 318.125 -377.7575 318.125 -378.4375 318.125 C-378.7675 315.485 -379.0975 312.845 -379.4375 310.125 C-380.0975 310.125 -380.7575 310.125 -381.4375 310.125 C-381.7675 307.485 -382.0975 304.845 -382.4375 302.125 C-383.0975 302.125 -383.7575 302.125 -384.4375 302.125 C-384.63666016 301.05958984 -384.63666016 301.05958984 -384.83984375 299.97265625 C-385.01644531 299.05355469 -385.19304687 298.13445312 -385.375 297.1875 C-385.54902344 296.27097656 -385.72304688 295.35445313 -385.90234375 294.41015625 C-386.21464988 292.17210156 -386.21464988 292.17210156 -387.4375 291.125 C-387.50929964 289.60571962 -387.52142007 288.08332518 -387.5 286.5625 C-387.49097656 285.73621094 -387.48195313 284.90992188 -387.47265625 284.05859375 C-387.46105469 283.42050781 -387.44945312 282.78242188 -387.4375 282.125 C-388.0975 282.125 -388.7575 282.125 -389.4375 282.125 C-390.71099042 272.30694 -390.58967478 262.46235145 -390.56787109 252.58276367 C-390.56251892 249.69770029 -390.56783751 246.81279299 -390.57421875 243.92773438 C-390.58265336 223.33552354 -390.58265336 223.33552354 -389.4375 216.125 C-389.1075 215.795 -388.7775 215.465 -388.4375 215.125 C-388.20557135 213.61030552 -388.02534762 212.08745438 -387.875 210.5625 C-387.79121094 209.73621094 -387.70742188 208.90992188 -387.62109375 208.05859375 C-387.53021484 207.10146484 -387.53021484 207.10146484 -387.4375 206.125 C-386.7775 206.125 -386.1175 206.125 -385.4375 206.125 C-385.1075 201.835 -384.7775 197.545 -384.4375 193.125 C-383.7775 193.125 -383.1175 193.125 -382.4375 193.125 C-382.1075 189.495 -381.7775 185.865 -381.4375 182.125 C-380.7775 182.125 -380.1175 182.125 -379.4375 182.125 C-379.1075 179.155 -378.7775 176.185 -378.4375 173.125 C-377.7775 173.125 -377.1175 173.125 -376.4375 173.125 C-376.251875 171.51625 -376.251875 171.51625 -376.0625 169.875 C-375.54106064 166.74636385 -375.03661746 164.79019576 -373.4375 162.125 C-372.7775 162.125 -372.1175 162.125 -371.4375 162.125 C-371.1075 159.485 -370.7775 156.845 -370.4375 154.125 C-369.7775 154.125 -369.1175 154.125 -368.4375 154.125 C-367.9425 151.155 -367.9425 151.155 -367.4375 148.125 C-366.7775 148.125 -366.1175 148.125 -365.4375 148.125 C-365.1075 146.475 -364.7775 144.825 -364.4375 143.125 C-363.7775 143.125 -363.1175 143.125 -362.4375 143.125 C-362.4375 142.135 -362.4375 141.145 -362.4375 140.125 C-361.7775 140.125 -361.1175 140.125 -360.4375 140.125 C-360.1075 138.475 -359.7775 136.825 -359.4375 135.125 C-358.7775 135.125 -358.1175 135.125 -357.4375 135.125 C-357.1075 133.805 -356.7775 132.485 -356.4375 131.125 C-355.7775 131.125 -355.1175 131.125 -354.4375 131.125 C-354.1075 129.475 -353.7775 127.825 -353.4375 126.125 C-352.7775 126.125 -352.1175 126.125 -351.4375 126.125 C-351.1075 124.475 -350.7775 122.825 -350.4375 121.125 C-348.4575 120.63 -348.4575 120.63 -346.4375 120.125 C-346.334375 119.361875 -346.23125 118.59875 -346.125 117.8125 C-345.39038806 114.94083516 -344.7658935 113.89457906 -342.4375 112.125 C-341.7775 112.125 -341.1175 112.125 -340.4375 112.125 C-340.355 111.50625 -340.2725 110.8875 -340.1875 110.25 C-339.4375 108.125 -339.4375 108.125 -337.4375 107.0625 C-336.7775 106.753125 -336.1175 106.44375 -335.4375 106.125 C-334.9425 104.64 -334.9425 104.64 -334.4375 103.125 C-333.7775 103.125 -333.1175 103.125 -332.4375 103.125 C-331.9425 101.64 -331.9425 101.64 -331.4375 100.125 C-330.7775 100.125 -330.1175 100.125 -329.4375 100.125 C-329.23125 99.5475 -329.025 98.97 -328.8125 98.375 C-326.94464999 95.31851817 -324.40987772 94.0867693 -321.4375 92.125 C-320.08593325 90.47308509 -318.74787934 88.80977344 -317.4375 87.125 C-316.7775 87.125 -316.1175 87.125 -315.4375 87.125 C-315.4375 86.465 -315.4375 85.805 -315.4375 85.125 C-313.7875 84.795 -312.1375 84.465 -310.4375 84.125 C-310.4375 81.485 -310.4375 78.845 -310.4375 76.125 C-311.0975 76.125 -311.7575 76.125 -312.4375 76.125 C-312.4375 75.465 -312.4375 74.805 -312.4375 74.125 C-313.0975 74.125 -313.7575 74.125 -314.4375 74.125 C-314.7675 73.135 -315.0975 72.145 -315.4375 71.125 C-316.0975 70.795 -316.7575 70.465 -317.4375 70.125 C-318.0625 67.5625 -318.0625 67.5625 -318.4375 65.125 C-319.9225 64.63 -319.9225 64.63 -321.4375 64.125 C-322.625 61.5625 -322.625 61.5625 -323.4375 59.125 C-324.0975 59.125 -324.7575 59.125 -325.4375 59.125 C-329.4375 53.71323529 -329.4375 53.71323529 -329.4375 51.125 C-330.0975 51.125 -330.7575 51.125 -331.4375 51.125 C-335.4375 46.77205882 -335.4375 46.77205882 -335.4375 43.125 C-336.7575 42.465 -338.0775 41.805 -339.4375 41.125 C-339.4375 40.465 -339.4375 39.805 -339.4375 39.125 C-340.02917969 39.14820313 -340.62085938 39.17140625 -341.23046875 39.1953125 C-349.66589183 39.3879649 -349.66589183 39.3879649 -353.4375 37.125 C-354.82326923 35.50167033 -356.16391268 33.83775535 -357.4375 32.125 C-358.0975 31.795 -358.7575 31.465 -359.4375 31.125 C-360.60448437 27.62404689 -360.57018287 24.8127768 -360.5625 21.125 C-360.56636719 19.26875 -360.56636719 19.26875 -360.5703125 17.375 C-360.4375 14.125 -360.4375 14.125 -359.4375 11.125 C-358.7775 11.125 -358.1175 11.125 -357.4375 11.125 C-357.334375 10.526875 -357.23125 9.92875 -357.125 9.3125 C-356.33113064 6.78655205 -355.48177591 5.77614593 -353.4375 4.125 C-347.19456599 2.044022 -338.33525042 1.63992501 -332.3125 4.625 C-327.83086644 8.52207266 -325.68002387 12.10736698 -325.19921875 18.08984375 C-325.18882511 20.78179605 -325.25977952 23.43944606 -325.4375 26.125 C-324.7775 26.125 -324.1175 26.125 -323.4375 26.125 C-322.9425 28.6 -322.9425 28.6 -322.4375 31.125 C-321.57125 31.2178125 -321.57125 31.2178125 -320.6875 31.3125 C-317.49039959 32.46700848 -316.2938468 34.34047979 -314.4375 37.125 C-314.4375 38.115 -314.4375 39.105 -314.4375 40.125 C-313.7775 40.125 -313.1175 40.125 -312.4375 40.125 C-310.9296875 41.8046875 -310.9296875 41.8046875 -309.3125 44 C-308.77367187 44.71929687 -308.23484375 45.43859375 -307.6796875 46.1796875 C-306.4375 48.125 -306.4375 48.125 -306.4375 50.125 C-304.9525 50.62 -304.9525 50.62 -303.4375 51.125 C-303.4375 52.115 -303.4375 53.105 -303.4375 54.125 C-302.7775 54.125 -302.1175 54.125 -301.4375 54.125 C-300.9425 56.6 -300.9425 56.6 -300.4375 59.125 C-298.9525 59.62 -298.9525 59.62 -297.4375 60.125 C-297.4375 61.445 -297.4375 62.765 -297.4375 64.125 C-296.4784375 64.49625 -296.4784375 64.49625 -295.5 64.875 C-293.4375 66.125 -293.4375 66.125 -292.6875 68.25 C-292.605 68.86875 -292.5225 69.4875 -292.4375 70.125 C-291.4475 70.125 -290.4575 70.125 -289.4375 70.125 C-289.4375 69.465 -289.4375 68.805 -289.4375 68.125 C-285.9725 67.63 -285.9725 67.63 -282.4375 67.125 C-282.4375 66.465 -282.4375 65.805 -282.4375 65.125 C-280.4575 64.795 -278.4775 64.465 -276.4375 64.125 C-276.4375 63.465 -276.4375 62.805 -276.4375 62.125 C-275.4475 62.125 -274.4575 62.125 -273.4375 62.125 C-273.4375 61.465 -273.4375 60.805 -273.4375 60.125 C-270.7975 59.795 -268.1575 59.465 -265.4375 59.125 C-265.4375 58.465 -265.4375 57.805 -265.4375 57.125 C-262.7975 56.795 -260.1575 56.465 -257.4375 56.125 C-257.4375 55.465 -257.4375 54.805 -257.4375 54.125 C-253.76339215 52.94928549 -250.26820817 53.05133254 -246.4375 53.125 C-246.4375 52.465 -246.4375 51.805 -246.4375 51.125 C-245.37208984 50.92583984 -245.37208984 50.92583984 -244.28515625 50.72265625 C-243.36605469 50.54605469 -242.44695312 50.36945313 -241.5 50.1875 C-240.58347656 50.01347656 -239.66695312 49.83945313 -238.72265625 49.66015625 C-236.48460156 49.34785012 -236.48460156 49.34785012 -235.4375 48.125 C-231.9375 47.625 -231.9375 47.625 -228.4375 47.125 C-228.1075 46.795 -227.7775 46.465 -227.4375 46.125 C-221.44068593 44.95171029 -215.53074251 45.0258333 -209.4375 45.125 C-209.4375 44.465 -209.4375 43.805 -209.4375 43.125 C-196.86540982 41.8390849 -184.27444823 41.97290327 -171.65185547 41.99462891 C-167.94624744 41.99998735 -164.24076059 41.99465923 -160.53515625 41.98828125 C-137.60743558 41.98250193 -137.60743558 41.98250193 -126.4375 43.125 C-126.4375 43.785 -126.4375 44.445 -126.4375 45.125 C-125.138125 45.104375 -123.83875 45.08375 -122.5 45.0625 C-117.74367675 45.05495028 -113.15361047 45.52612883 -108.4375 46.125 C-108.4375 46.785 -108.4375 47.445 -108.4375 48.125 C-105.7975 48.125 -103.1575 48.125 -100.4375 48.125 C-100.4375 48.785 -100.4375 49.445 -100.4375 50.125 C-96.1475 50.455 -91.8575 50.785 -87.4375 51.125 C-87.4375 51.785 -87.4375 52.445 -87.4375 53.125 C-84.4675 53.455 -81.4975 53.785 -78.4375 54.125 C-78.4375 54.785 -78.4375 55.445 -78.4375 56.125 C-75.4675 56.455 -72.4975 56.785 -69.4375 57.125 C-69.4375 57.785 -69.4375 58.445 -69.4375 59.125 C-66.1375 59.125 -62.8375 59.125 -59.4375 59.125 C-59.4375 58.465 -59.4375 57.805 -59.4375 57.125 C-57.77534732 55.78604368 -56.10786393 54.45369858 -54.4375 53.125 C-53.3546875 51.76375 -53.3546875 51.76375 -52.25 50.375 C-51.651875 49.6325 -51.05375 48.89 -50.4375 48.125 C-49.7775 48.125 -49.1175 48.125 -48.4375 48.125 C-48.1075 47.135 -47.7775 46.145 -47.4375 45.125 C-46.7775 45.125 -46.1175 45.125 -45.4375 45.125 C-45.4375 44.465 -45.4375 43.805 -45.4375 43.125 C-43.78747172 41.77113064 -42.1200613 40.43821858 -40.4375 39.125 C-40.1075 38.465 -39.7775 37.805 -39.4375 37.125 C-38.7775 37.125 -38.1175 37.125 -37.4375 37.125 C-37.1075 36.135 -36.7775 35.145 -36.4375 34.125 C-35.7775 34.125 -35.1175 34.125 -34.4375 34.125 C-34.4375 33.465 -34.4375 32.805 -34.4375 32.125 C-32.79398543 30.76323078 -31.12227344 29.43537934 -29.4375 28.125 C-28.591875 27.279375 -27.74625 26.43375 -26.875 25.5625 C-24.8112282 23.4987282 -22.87401702 21.72133874 -20.4375 20.125 C-19.7775 20.125 -19.1175 20.125 -18.4375 20.125 C-18.1075 17.485 -17.7775 14.845 -17.4375 12.125 C-16.7775 12.125 -16.1175 12.125 -15.4375 12.125 C-15.1075 10.145 -14.7775 8.165 -14.4375 6.125 C-13.7775 6.125 -13.1175 6.125 -12.4375 6.125 C-12.1075 5.135 -11.7775 4.145 -11.4375 3.125 C-10.1175 3.125 -8.7975 3.125 -7.4375 3.125 C-7.4375 2.465 -7.4375 1.805 -7.4375 1.125 C-4.64001159 0.19250386 -2.89429119 -0.00976152 0 0 Z " fill="#1588D7" transform="translate(401.4375,21.875)"/>
<path d="M0 0 C0.58147458 10.6741442 1.15878012 21.32198896 1.09765625 32.015625 C1.09553383 33.50470367 1.09553383 33.50470367 1.09336853 35.02386475 C1.08790855 38.09927807 1.07538707 41.17460987 1.0625 44.25 C1.05746677 46.37499893 1.05290713 48.49999903 1.04882812 50.625 C1.03798579 55.75002993 1.02082551 60.87500132 1 66 C1.91136719 65.96970703 2.82273437 65.93941406 3.76171875 65.90820312 C22.54982465 65.30062756 41.32635017 64.8939329 60.125 64.875 C61.00333496 64.87250244 61.88166992 64.87000488 62.78662109 64.86743164 C65.27705926 64.86158554 67.76737324 64.86299802 70.2578125 64.8671875 C71.37097336 64.86421158 71.37097336 64.86421158 72.50662231 64.86117554 C75.61234664 64.87533684 78.02994128 65.00998043 81 66 C81 66.66 81 67.32 81 68 C82.65 68.33 84.3 68.66 86 69 C86.33 70.65 86.66 72.3 87 74 C87.66 74 88.32 74 89 74 C89 74.99 89 75.98 89 77 C100.88 77 112.76 77 125 77 C125 77.66 125 78.32 125 79 C126.98 79.33 128.96 79.66 131 80 C131 80.66 131 81.32 131 82 C131.763125 82.103125 132.52625 82.20625 133.3125 82.3125 C136.25751284 83.06587538 137.25209356 83.55293098 139 86 C139.6875 88.6875 139.6875 88.6875 140 91 C140.66 91 141.32 91 142 91 C142.508783 92.55966218 143.00663469 94.12289241 143.5 95.6875 C143.91765625 96.99267578 143.91765625 96.99267578 144.34375 98.32421875 C145 101 145 101 145 106 C-3.5 106 -152 106 -305 106 C-305 101.59714577 -304.73734147 99.80043446 -303 96 C-302.34 96 -301.68 96 -301 96 C-300.95875 95.154375 -300.9175 94.30875 -300.875 93.4375 C-299.71743446 88.88992111 -297.53064924 86.0576436 -294 83 C-291.125 82.0625 -291.125 82.0625 -289 82 C-289 81.34 -289 80.68 -289 80 C-284.54672363 78.88764315 -280.19551227 78.87145129 -275.63671875 78.90234375 C-274.44874443 78.90446617 -274.44874443 78.90446617 -273.23677063 78.90663147 C-270.72030781 78.91220543 -268.20393569 78.92475307 -265.6875 78.9375 C-263.97591275 78.94251837 -262.26432409 78.94708069 -260.55273438 78.95117188 C-256.36845492 78.96216632 -252.18424281 78.97941293 -248 79 C-247.57074219 78.03320312 -247.57074219 78.03320312 -247.1328125 77.046875 C-246 75 -246 75 -243.875 74.25 C-243.25625 74.1675 -242.6375 74.085 -242 74 C-242 73.34 -242 72.68 -242 72 C-237.6041313 71.15412901 -233.45852394 70.87828109 -228.98486328 70.88647461 C-228.31099075 70.88632858 -227.63711823 70.88618256 -226.94282532 70.8860321 C-224.73528727 70.88672379 -222.52783564 70.89448103 -220.3203125 70.90234375 C-218.78189134 70.90421058 -217.24346958 70.90563323 -215.70504761 70.90663147 C-211.67075945 70.91043581 -207.63650773 70.92024816 -203.60223389 70.93133545 C-199.47961927 70.9415945 -195.35699872 70.94613869 -191.234375 70.95117188 C-183.15623335 70.96187243 -175.07812122 70.97892365 -167 71 C-167 70.34 -167 69.68 -167 69 C-165.68 68.67 -164.36 68.34 -163 68 C-163.33 67.67 -163.66 67.34 -164 67 C-164.09413687 64.94443339 -164.11742998 62.88559819 -164.11352539 60.82788086 C-164.11367142 60.18399918 -164.11381744 59.54011749 -164.1139679 58.87672424 C-164.11326885 56.73939697 -164.10547691 54.60215587 -164.09765625 52.46484375 C-164.09579204 50.98653715 -164.09436815 49.50822993 -164.09336853 48.02992249 C-164.08954359 44.13201198 -164.07971352 40.23413851 -164.06866455 36.33624268 C-164.05844992 32.36153667 -164.0538708 28.38682471 -164.04882812 24.41210938 C-164.03809122 16.608056 -164.02101509 8.80403318 -164 1 C-150.44277384 0.86657023 -136.88552253 0.7360661 -123.32823658 0.60884857 C-117.02634659 0.54963113 -110.7244675 0.48957126 -104.42260742 0.42724609 C-69.61398604 0.0837952 -34.81030714 -0.07024662 0 0 Z " fill="#3096D9" transform="translate(317,360)"/>
<path d="M0 0 C1.53593792 0.28307388 3.07837851 0.53274882 4.625 0.75 C10.78998221 1.91684462 15.70550568 4.72867146 21 8 C21.66128906 8.40347656 22.32257813 8.80695313 23.00390625 9.22265625 C27.83611284 12.41169639 31.34802784 16.55173316 35 21 C36.051875 22.175625 36.051875 22.175625 37.125 23.375 C41.74346352 29.84084892 44.5581194 36.04614922 45 44 C45.66 44 46.32 44 47 44 C48.65766705 49.07717373 49.318943 53.66909375 49.3359375 59.0234375 C49.3459227 60.14185532 49.3459227 60.14185532 49.35610962 61.28286743 C49.36617547 62.85098832 49.37092853 64.41915152 49.37060547 65.98730469 C49.37497618 68.36205938 49.41134989 70.73494841 49.44921875 73.109375 C49.52149533 82.49423009 49.32122627 90.33133846 42.66796875 97.51953125 C39.34424701 99.3638805 37.11746785 99.57023744 33.3125 99.6875 C32.622771 99.71457031 31.93304199 99.74164063 31.22241211 99.76953125 C28.48193893 99.86919512 25.74150232 99.93410657 23 100 C19.36063944 100.09799673 15.72139849 100.2003245 12.0821991 100.30412292 C8.19012569 100.41479184 4.29814721 100.51897554 0.40551758 100.6081543 C-1.05127094 100.64496395 -2.50805811 100.68182691 -3.96484375 100.71875 C-5.2705835 100.74904297 -6.57632324 100.77933594 -7.92163086 100.81054688 C-10.91220981 100.79301033 -10.91220981 100.79301033 -13 102 C-14.8829321 102.10642856 -16.76962021 102.14882656 -18.65551758 102.16113281 C-19.84047318 102.17074036 -21.02542877 102.1803479 -22.24629211 102.19024658 C-23.53271103 102.19449646 -24.81912994 102.19874634 -26.14453125 102.203125 C-28.1201429 102.21167511 -28.1201429 102.21167511 -30.13566589 102.22039795 C-32.9274433 102.23090825 -35.71919192 102.23675038 -38.51098633 102.24023438 C-42.08211892 102.24571235 -45.65286893 102.26972477 -49.22388172 102.29820633 C-52.6349242 102.32135532 -56.04591428 102.32328419 -59.45703125 102.328125 C-60.73737747 102.3404718 -62.01772369 102.3528186 -63.33686829 102.36553955 C-64.53128036 102.36253845 -65.72569244 102.35953735 -66.95629883 102.35644531 C-68.00505692 102.36009094 -69.053815 102.36373657 -70.13435364 102.36749268 C-73.45731109 101.94135408 -75.31701154 100.97744964 -78 99 C-79.546875 96.4765625 -79.546875 96.4765625 -80.75 93.625 C-81.15734375 92.68914062 -81.5646875 91.75328125 -81.984375 90.7890625 C-87.61271471 75.33277577 -84.79227623 55.36095684 -80 40 C-79.34 40 -78.68 40 -78 40 C-77.82984375 39.32453125 -77.6596875 38.6490625 -77.484375 37.953125 C-76.09293265 32.83143294 -75.09029707 29.5625168 -71 26 C-69.74563813 23.36777038 -69.74563813 23.36777038 -69 21 C-68.34 21 -67.68 21 -67 21 C-66.67 20.01 -66.34 19.02 -66 18 C-65.34 18 -64.68 18 -64 18 C-63.773125 17.4225 -63.54625 16.845 -63.3125 16.25 C-60.72258777 11.81015046 -56.3088132 9.56476976 -52 7 C-51.51015625 6.60683594 -51.0203125 6.21367187 -50.515625 5.80859375 C-39.15493644 -3.25290784 -13.26982615 -5.92004029 0 0 Z " fill="#F9FBFC" transform="translate(341,134)"/>
<path d="M0 0 C0 0.66 0 1.32 0 2 C1.33417969 2.09474609 1.33417969 2.09474609 2.6953125 2.19140625 C6.81868419 3.20031634 8.14803704 4.73767983 10.875 7.9375 C11.65617187 8.83339844 12.43734375 9.72929687 13.2421875 10.65234375 C15 13 15 13 15 15 C15.66 15 16.32 15 17 15 C17 15.66 17 16.32 17 17 C17.66 17 18.32 17 19 17 C24.71401046 31.61250897 29.37505996 44.23836191 29.1875 60.0625 C29.1865332 61.61807617 29.1865332 61.61807617 29.18554688 63.20507812 C29.09611044 78.87632968 29.09611044 78.87632968 25 86 C24.34 86 23.68 86 23 86 C22.505 87.98 22.505 87.98 22 90 C15.81864939 91.57362122 9.91815608 92.37066946 3.55078125 92.59375 C2.65329666 92.63077026 1.75581207 92.66779053 0.83113098 92.70593262 C-11.82575336 93.19551094 -24.49298119 93.35441441 -37.15698242 93.55224609 C-48.69594692 93.73649089 -60.19405674 93.97226294 -71.70776367 94.77734375 C-76.05727813 95.07150446 -80.39145645 95.21818581 -84.75 95.25 C-85.5028125 95.270625 -86.255625 95.29125 -87.03125 95.3125 C-90.31818235 95.33581158 -92.6095214 95.21585463 -95.515625 93.609375 C-97 92 -97 92 -97 90 C-97.66 90 -98.32 90 -99 90 C-106.69606813 72.53171512 -106.0179361 49.21781547 -99.83203125 31.1171875 C-96.76602029 23.31541313 -92.44203331 16.40793532 -87 10 C-86.34 10 -85.68 10 -85 10 C-84.773125 9.4225 -84.54625 8.845 -84.3125 8.25 C-80.06454452 0.9677906 -69.91524121 -3.84506522 -62 -6 C-58.375 -6.25 -58.375 -6.25 -56 -6 C-56 -6.66 -56 -7.32 -56 -8 C-37.98322914 -10.63817002 -15.07713303 -11.93606365 0 0 Z " fill="#F8FAFC" transform="translate(176,149)"/>
<path d="M0 0 C0.60217212 10.96805876 1.15491594 21.90235108 1.09765625 32.890625 C1.09553383 34.51287994 1.09553383 34.51287994 1.09336853 36.16790771 C1.08789488 39.52863677 1.07536976 42.88929206 1.0625 46.25 C1.05746856 48.56770735 1.0529086 50.88541578 1.04882812 53.203125 C1.03796748 58.80210732 1.02136302 64.40104839 1 70 C0.12684647 70.01030746 -0.74630707 70.02061493 -1.6459198 70.03123474 C-9.92711726 70.12974315 -18.2082525 70.23232668 -26.4893446 70.33933926 C-30.74539583 70.39419841 -35.00145422 70.44755338 -39.25756836 70.49731445 C-43.37492846 70.54551122 -47.49221775 70.59786322 -51.60949135 70.65294075 C-53.17011025 70.67311709 -54.73074836 70.6918663 -56.29140282 70.70907402 C-63.35242278 70.78775649 -70.37864939 70.8935889 -77.41796875 71.51367188 C-85.71799072 72.21975327 -94.0088426 72.12440502 -102.33203125 72.09765625 C-104.06223001 72.09578648 -105.7924293 72.09436523 -107.52262878 72.09336853 C-112.03192662 72.08958729 -116.5411912 72.07979562 -121.05047607 72.06866455 C-125.66971385 72.05835489 -130.28895711 72.05385063 -134.90820312 72.04882812 C-143.93881653 72.0381685 -152.96940548 72.02114624 -162 72 C-163.89826854 67.98347814 -164.243969 64.79789418 -164.22705078 60.3737793 C-164.22734283 59.72931351 -164.22763489 59.08484772 -164.22793579 58.42085266 C-164.22655005 56.30516779 -164.21102507 54.18984158 -164.1953125 52.07421875 C-164.19157967 50.60163058 -164.18873397 49.12903991 -164.18673706 47.65644836 C-164.17912183 43.79142328 -164.15949163 39.92654987 -164.1373291 36.06158447 C-164.11682508 32.11334281 -164.10772562 28.1650765 -164.09765625 24.21679688 C-164.0762436 16.47779563 -164.04213333 8.73891912 -164 1 C-150.44277384 0.86657023 -136.88552253 0.7360661 -123.32823658 0.60884857 C-117.02634659 0.54963113 -110.7244675 0.48957126 -104.42260742 0.42724609 C-69.61398604 0.0837952 -34.81030714 -0.07024662 0 0 Z " fill="#DD8E46" transform="translate(317,360)"/>
<path d="M0 0 C1.03617462 -0.00556915 2.07234924 -0.01113831 3.1399231 -0.01687622 C4.84424248 -0.00305405 4.84424248 -0.00305405 6.58299255 0.01104736 C8.37836456 0.0079808 8.37836456 0.0079808 10.21000671 0.00485229 C13.49305963 0.00235738 16.77573687 0.01325658 20.05873609 0.0303793 C23.49177621 0.04540746 26.92481213 0.04424106 30.35787964 0.04504395 C36.12226209 0.0487369 41.8865255 0.06370638 47.65086365 0.08624268 C55.05482 0.11512985 62.45868053 0.12546715 69.86268711 0.12992477 C76.22266463 0.1339021 82.58262124 0.14640352 88.9425838 0.16027164 C90.98981412 0.16437322 93.03704369 0.16729751 95.0842762 0.17006683 C98.89378302 0.17691117 102.70320131 0.19053465 106.51268005 0.20635986 C108.22003578 0.20803665 108.22003578 0.20803665 109.96188354 0.20974731 C110.99523834 0.21545746 112.02859314 0.2211676 113.09326172 0.22705078 C113.99456597 0.23002544 114.89587023 0.23300011 115.82448673 0.23606491 C117.98313904 0.36749268 117.98313904 0.36749268 119.98313904 1.36749268 C121.92447057 8.76881913 120.30311798 12.89938426 116.66673279 19.50030518 C116.11114685 20.44647705 115.55556091 21.39264893 114.98313904 22.36749268 C114.5409906 23.14866455 114.09884216 23.92983643 113.64329529 24.73468018 C111.20750308 28.85918456 108.5247365 32.09832579 104.98313904 35.36749268 C104.26126404 36.13061768 103.53938904 36.89374268 102.79563904 37.67999268 C100.98313904 39.36749268 100.98313904 39.36749268 98.98313904 39.36749268 C98.98313904 40.02749268 98.98313904 40.68749268 98.98313904 41.36749268 C92.23313904 45.36749268 92.23313904 45.36749268 89.98313904 45.36749268 C89.32313904 46.68749268 88.66313904 48.00749268 87.98313904 49.36749268 C87.32313904 49.36749268 86.66313904 49.36749268 85.98313904 49.36749268 C85.98313904 50.02749268 85.98313904 50.68749268 85.98313904 51.36749268 C85.41466248 51.48866455 84.84618591 51.60983643 84.26048279 51.73468018 C83.10226013 51.98604736 83.10226013 51.98604736 81.92063904 52.24249268 C81.16653748 52.40491455 80.41243591 52.56733643 79.63548279 52.73468018 C76.88214607 53.35056343 76.88214607 53.35056343 73.86985779 54.40655518 C58.26428532 58.88209972 39.69184673 55.35617998 24.98313904 49.36749268 C23.29365573 48.40654318 21.61647375 47.42105591 19.98313904 46.36749268 C19.30251404 46.26436768 18.62188904 46.16124268 17.92063904 46.05499268 C14.7108577 44.91603801 13.67821251 42.19261513 11.98313904 39.36749268 C10.2901228 36.30120708 10.2901228 36.30120708 7.79563904 35.24249268 C3.6017374 32.44655825 0.7430804 28.55910391 -2.01686096 24.36749268 C-2.01686096 23.70749268 -2.01686096 23.04749268 -2.01686096 22.36749268 C-2.67686096 22.36749268 -3.33686096 22.36749268 -4.01686096 22.36749268 C-6.85386443 16.30086472 -9.56053048 10.1679827 -8.01686096 3.36749268 C-5.62556946 0.22175466 -3.86074152 -0.00627939 0 0 Z " fill="#FDFEFE" transform="translate(176.01686096191406,277.63250732421875)"/>
<path d="M0 0 C1.51013672 -0.00193359 1.51013672 -0.00193359 3.05078125 -0.00390625 C4.09621094 -0.00003906 5.14164062 0.00382813 6.21875 0.0078125 C7.78689453 0.00201172 7.78689453 0.00201172 9.38671875 -0.00390625 C10.39347656 -0.00261719 11.40023437 -0.00132812 12.4375 0 C13.35466797 0.00112793 14.27183594 0.00225586 15.21679688 0.00341797 C17.52954015 0.12302706 19.50404551 0.48070507 21.71875 1.1328125 C21.71875 1.7928125 21.71875 2.4528125 21.71875 3.1328125 C22.37875 3.1328125 23.03875 3.1328125 23.71875 3.1328125 C23.71875 3.7928125 23.71875 4.4528125 23.71875 5.1328125 C24.275625 5.2359375 24.8325 5.3390625 25.40625 5.4453125 C30.57820884 6.98292188 33.67244903 9.73259999 36.71875 14.1328125 C36.71875 14.7928125 36.71875 15.4528125 36.71875 16.1328125 C37.37875 16.1328125 38.03875 16.1328125 38.71875 16.1328125 C41.71875 20.51742788 41.71875 20.51742788 41.71875 23.1328125 C42.37875 23.1328125 43.03875 23.1328125 43.71875 23.1328125 C43.71875 24.4528125 43.71875 25.7728125 43.71875 27.1328125 C44.37875 27.1328125 45.03875 27.1328125 45.71875 27.1328125 C47.91513859 37.29110971 47.43210128 48.70610993 42.71875 58.1328125 C42.05875 58.1328125 41.39875 58.1328125 40.71875 58.1328125 C40.656875 58.6896875 40.595 59.2465625 40.53125 59.8203125 C39.3822759 63.09046956 37.20676312 64.76327619 34.71875 67.1328125 C34.244375 67.8340625 33.77 68.5353125 33.28125 69.2578125 C31.1324563 71.83636493 28.76188739 72.76041721 25.71875 74.1328125 C21.46557622 75.82865847 21.46557622 75.82865847 18.71875 79.1328125 C-5.99457771 80.49678195 -5.99457771 80.49678195 -15.5 73.859375 C-16.0878125 73.28960937 -16.675625 72.71984375 -17.28125 72.1328125 C-17.28125 71.4728125 -17.28125 70.8128125 -17.28125 70.1328125 C-18.1475 69.7615625 -18.1475 69.7615625 -19.03125 69.3828125 C-22.95402476 67.20349319 -25.86093413 63.8843021 -28.28125 60.1328125 C-28.28125 59.1428125 -28.28125 58.1528125 -28.28125 57.1328125 C-28.94125 57.1328125 -29.60125 57.1328125 -30.28125 57.1328125 C-33.41848094 51.13905023 -33.68132703 46.20499989 -33.53125 39.5078125 C-33.52609375 38.5796875 -33.5209375 37.6515625 -33.515625 36.6953125 C-33.46591732 32.35831732 -33.22298005 28.38003392 -32.28125 24.1328125 C-31.62125 24.1328125 -30.96125 24.1328125 -30.28125 24.1328125 C-30.16652344 23.55015625 -30.05179687 22.9675 -29.93359375 22.3671875 C-29.23300938 19.96758115 -28.29932405 18.40420317 -26.84375 16.3828125 C-26.41191406 15.76921875 -25.98007812 15.155625 -25.53515625 14.5234375 C-25.12136719 14.06453125 -24.70757812 13.605625 -24.28125 13.1328125 C-23.62125 13.1328125 -22.96125 13.1328125 -22.28125 13.1328125 C-21.971875 12.2665625 -21.971875 12.2665625 -21.65625 11.3828125 C-19.39186614 7.67745709 -15.80667102 5.87490921 -11.96875 4.0078125 C-10.0920854 3.24462639 -10.0920854 3.24462639 -9.28125 1.1328125 C-6.19949285 0.03578339 -3.24789762 0.00399425 0 0 Z " fill="#545454" transform="translate(327.28125,149.8671875)"/>
<path d="M0 0 C0 0.66 0 1.32 0 2 C0.72445312 2.09925781 1.44890625 2.19851562 2.1953125 2.30078125 C8.75047654 3.93500738 13.56798285 8.76542379 17.1328125 14.328125 C23.18550155 25.5390246 25.85275706 36.0589347 22.3125 48.5 C20.52512679 53.96389176 18.43453279 58.39049547 15 63 C14.34 63 13.68 63 13 63 C12.505 64.485 12.505 64.485 12 66 C11.34 66 10.68 66 10 66 C10 66.66 10 67.32 10 68 C8.28515625 69.21875 8.28515625 69.21875 6.0625 70.5 C2.94567974 72.18454879 2.94567974 72.18454879 1 75 C-9.77081602 78.34266704 -22.6054784 78.77827065 -33 74 C-38.33964456 71.0173414 -42.90238291 67.56591618 -47 63 C-47.70125 62.2575 -48.4025 61.515 -49.125 60.75 C-56.34429989 50.16169349 -56.08763777 36.06667945 -53.89453125 23.93359375 C-51.85140043 17.23319529 -47.13890569 11.65250721 -42 7 C-41.34 7 -40.68 7 -40 7 C-40 6.34 -40 5.68 -40 5 C-26.64155235 -2.17398114 -14.80329166 -3.66807227 0 0 Z " fill="#555555" transform="translate(164,159)"/>
<path d="M0 0 C1.09828769 3.54188278 1.11445011 6.8209762 1.09765625 10.515625 C1.09443359 11.76601563 1.09121094 13.01640625 1.08789062 14.3046875 C1.07951172 15.60664063 1.07113281 16.90859375 1.0625 18.25 C1.05798828 19.56742187 1.05347656 20.88484375 1.04882812 22.2421875 C1.03704316 25.49483741 1.02059011 28.74739584 1 32 C0.06215164 32.01030746 -0.87569672 32.02061493 -1.84196472 32.03123474 C-10.8245392 32.13040657 -19.80706599 32.23323118 -28.78956127 32.33933926 C-33.40387938 32.39373759 -38.01820386 32.44699219 -42.63256836 32.49731445 C-61.19577332 32.70049847 -79.742036 32.9532861 -98.29354858 33.66622925 C-108.63688007 34.05410535 -118.96329243 34.1168885 -129.3125 34.0625 C-131.05924344 34.0574502 -132.80598837 34.05289373 -134.55273438 34.04882812 C-138.70186225 34.03815411 -142.85091264 34.02110421 -147 34 C-145.43113862 30.65141811 -143.85334368 28.75628314 -141 26.375 C-138.92339664 24.6266832 -136.92037235 22.92037235 -135 21 C-133.989375 20.5875 -132.97875 20.175 -131.9375 19.75 C-129.03184573 18.55808876 -126.62531716 17.12414662 -124.0625 15.3125 C-119.92137424 12.48579299 -115.64113091 10.10032772 -111.1875 7.8125 C-110.56045166 7.47968018 -109.93340332 7.14686035 -109.28735352 6.80395508 C-97.19569434 0.72068765 -84.91307326 0.53413344 -71.69921875 0.48828125 C-69.84982645 0.47139529 -68.00044536 0.45323993 -66.15107727 0.43388367 C-61.31569957 0.38667866 -56.48036718 0.35669445 -51.64483643 0.33044434 C-46.72602133 0.30059827 -41.80736738 0.25399273 -36.88867188 0.20898438 C-29.69755684 0.145348 -22.50644698 0.08848983 -15.31518555 0.04418945 C-14.57374298 0.03955185 -13.83230042 0.03491425 -13.06838989 0.03013611 C-8.71215601 0.00471996 -4.35628 -0.00403696 0 0 Z " fill="#F2A256" transform="translate(317,376)"/>
<path d="M0 0 C0 7.26 0 14.52 0 22 C-2.11301514 22.02505615 -4.22603027 22.0501123 -6.40307617 22.07592773 C-13.43188215 22.15989258 -20.46062414 22.24851047 -27.4893446 22.33933926 C-31.74539583 22.39419841 -36.00145422 22.44755338 -40.25756836 22.49731445 C-44.37492846 22.54551122 -48.49221775 22.59786322 -52.60949135 22.65294075 C-54.17011025 22.67311709 -55.73074836 22.6918663 -57.29140282 22.70907402 C-64.35242278 22.78775649 -71.37864939 22.8935889 -78.41796875 23.51367188 C-86.71799072 24.21975327 -95.0088426 24.12440502 -103.33203125 24.09765625 C-105.06223001 24.09578648 -106.7924293 24.09436523 -108.52262878 24.09336853 C-113.03192662 24.08958729 -117.5411912 24.07979562 -122.05047607 24.06866455 C-126.66971385 24.05835489 -131.28895711 24.05385063 -135.90820312 24.04882812 C-144.93881653 24.0381685 -153.96940548 24.02114624 -163 24 C-163 20 -163 20 -160.875 17.8125 C-160.42125 17.39742188 -159.9675 16.98234375 -159.5 16.5546875 C-157.07490388 14.04117642 -155.30933748 11.11483169 -153.4296875 8.18359375 C-152.95789063 7.46300781 -152.48609375 6.74242187 -152 6 C-151.58699142 5.30811584 -151.17398285 4.61623169 -150.74845886 3.90338135 C-149 2 -149 2 -146.55805969 1.4430542 C-145.58024033 1.41640686 -144.60242096 1.38975952 -143.5949707 1.36230469 C-141.90617294 1.30271072 -141.90617294 1.30271072 -140.18325806 1.24191284 C-138.32330704 1.20724411 -138.32330704 1.20724411 -136.42578125 1.171875 C-135.1141098 1.13305206 -133.80243835 1.09422913 -132.45101929 1.05422974 C-128.82990671 0.94914888 -125.20864612 0.87060591 -121.58675766 0.79781342 C-119.31608657 0.7500754 -117.04572996 0.694773 -114.77529907 0.63677979 C-76.52441042 -0.3377099 -38.25974131 -0.1943257 0 0 Z " fill="#F69335" transform="translate(318,408)"/>
<path d="M0 0 C3.43626705 5.95619623 3.14917111 12.42989626 3.1328125 19.09765625 C3.13376923 19.96837265 3.13472595 20.83908905 3.13571167 21.7361908 C3.13639021 23.57599968 3.13455869 25.41581099 3.13037109 27.25561523 C3.12506374 30.02919099 3.13030359 32.80260142 3.13671875 35.57617188 C3.13992834 45.1025493 2.96473776 54.51414454 2 64 C1.01 64.33 0.02 64.66 -1 65 C-1.14695312 66.55847656 -1.14695312 66.55847656 -1.296875 68.1484375 C-3.13228616 85.86876867 -3.13228616 85.86876867 -8.56640625 93.078125 C-10.1887596 95.04335587 -10.1887596 95.04335587 -11 98 C-11.66 98 -12.32 98 -13 98 C-13.144375 98.78375 -13.28875 99.5675 -13.4375 100.375 C-14 103 -14 103 -15 105 C-15.66 105 -16.32 105 -17 105 C-18.73662334 108.22515763 -19.8905928 111.51329166 -21 115 C-23.64 115.33 -26.28 115.66 -29 116 C-29 116.66 -29 117.32 -29 118 C-29.99443115 118.05534912 -30.9888623 118.11069824 -32.01342773 118.16772461 C-35.69062576 118.37362652 -39.36744928 118.58565079 -43.04418945 118.79956055 C-44.63784342 118.89141146 -46.23159497 118.98158481 -47.82543945 119.07006836 C-50.11176635 119.19728394 -52.39767843 119.33045965 -54.68359375 119.46484375 C-55.7586039 119.52272316 -55.7586039 119.52272316 -56.85533142 119.58177185 C-60.21732982 119.512114 -60.21732982 119.512114 -63 121 C-64.5941833 121.15402257 -66.19510076 121.2385644 -67.7956543 121.29663086 C-68.85806839 121.33567032 -69.92048248 121.37470978 -71.01509094 121.41493225 C-72.21022812 121.45202805 -73.4053653 121.48912384 -74.63671875 121.52734375 C-75.90714523 121.56866928 -77.17757172 121.60999481 -78.48649597 121.65257263 C-97.55242059 122.23830806 -116.6306054 122.35049304 -135.70361328 122.53222656 C-139.85461541 122.57264782 -144.00557667 122.61662156 -148.15654182 122.66065407 C-168.43774041 122.87521067 -188.71739619 123.08603003 -209 123 C-209 122.67 -209 122.34 -209 122 C-202.99144838 120.70104825 -196.98387145 120.81034809 -190.8671875 120.75390625 C-188.42577829 120.72092151 -185.98437212 120.68771077 -183.54296875 120.65429688 C-179.73033089 120.60730242 -175.91770092 120.5629452 -172.10498047 120.52319336 C-153.91234283 120.34072423 -153.91234283 120.34072423 -135.76953125 119.09375 C-135.0036972 119.01794205 -134.23786316 118.94213409 -133.44882202 118.86402893 C-126.71672985 118.11183698 -120.21951791 116.55636754 -113.66796875 114.875 C-110.60086577 114.14333752 -107.75813583 113.67967475 -104.625 113.4375 C-101.08002528 113.4015803 -101.08002528 113.4015803 -99.59765625 111.515625 C-97.40959216 109.4399065 -95.78044084 109.50522343 -92.8125 109.3125 C-91.91144531 109.24675781 -91.01039063 109.18101562 -90.08203125 109.11328125 C-89.05142578 109.05720703 -89.05142578 109.05720703 -88 109 C-88 108.34 -88 107.68 -88 107 C-86.96552734 106.83564453 -86.96552734 106.83564453 -85.91015625 106.66796875 C-80.33016239 105.7264883 -75.09548424 104.5285494 -69.77734375 102.5859375 C-68 102 -68 102 -66 102 C-66 101.34 -66 100.68 -66 100 C-59.375 97 -59.375 97 -56 97 C-55.75894531 96.38253906 -55.51789063 95.76507813 -55.26953125 95.12890625 C-53.69873931 92.49480899 -52.51334179 92.03459152 -49.6875 90.9375 C-48.47707031 90.43476563 -48.47707031 90.43476563 -47.2421875 89.921875 C-46.50226563 89.61765625 -45.76234375 89.3134375 -45 89 C-40.72503688 86.91222732 -38.36472869 84.24897894 -35.52734375 80.5234375 C-33.73688168 78.73755462 -32.46428049 78.39216507 -30 78 C-30 77.34 -30 76.68 -30 76 C-29.34 76 -28.68 76 -28 76 C-27.6596875 74.948125 -27.6596875 74.948125 -27.3125 73.875 C-25.66158712 70.25871465 -23.7091165 67.91230024 -21 65 C-20.34 65 -19.68 65 -19 65 C-18.773125 64.34 -18.54625 63.68 -18.3125 63 C-17.18777446 60.42919876 -15.98486244 58.09951824 -14.5625 55.6875 C-14.15128906 54.99011719 -13.74007812 54.29273438 -13.31640625 53.57421875 C-12.88199219 53.05472656 -12.44757813 52.53523438 -12 52 C-11.01 52 -10.02 52 -9 52 C-8.87882813 51.34773438 -8.75765625 50.69546875 -8.6328125 50.0234375 C-7.71056011 45.21353658 -6.69832723 40.60974535 -5 36 C-4.34 36 -3.68 36 -3 36 C-3.04125 35.01 -3.0825 34.02 -3.125 33 C-3.13350502 30.14798387 -2.80339058 28.27698471 -2.03125 25.4375 C-0.69621864 20.32955392 -0.54899328 15.25604711 -0.375 10 C-0.31699219 8.55173828 -0.31699219 8.55173828 -0.2578125 7.07421875 C-0.16443059 4.7163256 -0.07865671 2.35842244 0 0 Z " fill="#357DAC" transform="translate(449,238)"/>
<path d="M0 0 C-2 3 -2 3 -4.20703125 3.6640625 C-7.36911972 4.04439762 -10.5061017 4.22537096 -13.6875 4.375 C-18.93940448 4.71858254 -23.38469889 5.54244703 -28.33984375 7.23828125 C-32.86996729 8.53545319 -37.52331934 8.99747945 -42.19140625 9.5703125 C-44.89814414 9.70079821 -44.89814414 9.70079821 -46 11 C-47.31568337 11.35046668 -48.64413752 11.65342721 -49.9765625 11.93359375 C-50.79157227 12.10745605 -51.60658203 12.28131836 -52.44628906 12.46044922 C-53.28901367 12.63850098 -54.13173828 12.81655273 -55 13 C-56.54971606 13.34398658 -58.09919971 13.68902201 -59.6484375 14.03515625 C-61.22384058 14.3781455 -62.79936196 14.72059175 -64.375 15.0625 C-65.1484375 15.23587891 -65.921875 15.40925781 -66.71875 15.58789062 C-77.20697189 17.84649286 -87.62520291 18.14492785 -98.32421875 18.09765625 C-99.55163284 18.0962413 -100.77904694 18.09482635 -102.0436554 18.09336853 C-105.92496279 18.08781636 -109.80621034 18.07527295 -113.6875 18.0625 C-116.33528562 18.05747881 -118.98307215 18.05291699 -121.63085938 18.04882812 C-128.08728063 18.03871785 -134.54357411 18.0191333 -141 18 C-141 28.56 -141 39.12 -141 50 C-136.38 50 -131.76 50 -127 50 C-134.28571429 62.85714286 -134.28571429 62.85714286 -139 68 C-140.32 67.67 -141.64 67.34 -143 67 C-143 45.22 -143 23.44 -143 1 C-116.58166425 0.75043408 -116.58166425 0.75043408 -105.10546875 0.64453125 C-97.34976388 0.57295307 -89.59406259 0.50108847 -81.83837891 0.42724609 C-26.13381703 -0.10239907 -26.13381703 -0.10239907 0 0 Z " fill="#D68233" transform="translate(296,360)"/>
<path d="M0 0 C5.44733976 4.87393558 6.83853605 13.21091221 8.375 20.125 C9.035 20.125 9.695 20.125 10.375 20.125 C10.375 20.785 10.375 21.445 10.375 22.125 C11.035 22.125 11.695 22.125 12.375 22.125 C12.56835938 22.69089844 12.76171875 23.25679687 12.9609375 23.83984375 C13.22132813 24.57332031 13.48171875 25.30679688 13.75 26.0625 C14.00523437 26.79339844 14.26046875 27.52429688 14.5234375 28.27734375 C15.22771413 30.31182116 15.22771413 30.31182116 17.375 31.125 C18 33.6875 18 33.6875 18.375 36.125 C19.035 36.125 19.695 36.125 20.375 36.125 C20.59831199 37.70629029 20.80304644 39.29021089 21 40.875 C21.11601562 41.75671875 21.23203125 42.6384375 21.3515625 43.546875 C21.37769067 46.42097338 20.97051613 47.75745994 19.375 50.125 C15.49112261 52.71425159 12.1995068 52.44877642 7.69140625 52.4609375 C6.41353493 52.4709227 6.41353493 52.4709227 5.10984802 52.48110962 C3.30852416 52.49123202 1.50716282 52.49592677 -0.29418945 52.49560547 C-3.04896853 52.49997852 -5.80214508 52.53630042 -8.55664062 52.57421875 C-10.30728619 52.58008705 -12.05793936 52.58405635 -13.80859375 52.5859375 C-15.04312538 52.60749405 -15.04312538 52.60749405 -16.30259705 52.62948608 C-22.00831751 52.58393902 -22.00831751 52.58393902 -25.14282227 50.2512207 C-27.95074008 46.22319299 -27.25974395 41.81825832 -26.625 37.125 C-25.61315972 33.94338459 -24.13268708 31.09646095 -22.625 28.125 C-21.77667869 26.13131111 -20.94408735 24.13087646 -20.125 22.125 C-18.32337613 17.77568102 -16.46925712 13.45815387 -14.53125 9.16796875 C-13.64456015 7.16909466 -12.82196545 5.15114484 -12 3.125 C-9.55646088 -2.20635808 -5.16584492 -1.72194831 0 0 Z " fill="#EE923A" transform="translate(233.625,204.875)"/>
<path d="M0 0 C4.24334239 3.83844331 5.30016764 7.27708615 5.75 12.875 C5.9046875 14.6075 5.9046875 14.6075 6.0625 16.375 C5.32059814 24.68430085 2.46430786 30.53212293 -3.75 36.125 C-7.8305091 38.98135637 -11.33375478 39.01229061 -16.25 39 C-17.28125 39.00257813 -18.3125 39.00515625 -19.375 39.0078125 C-21.84657009 38.89363671 -23.8942958 38.58850656 -26.25 37.875 C-26.25 37.215 -26.25 36.555 -26.25 35.875 C-26.91 35.875 -27.57 35.875 -28.25 35.875 C-28.25 35.215 -28.25 34.555 -28.25 33.875 C-29.13945312 33.49794922 -29.13945312 33.49794922 -30.046875 33.11328125 C-34.18175422 30.78924453 -36.41276928 27.17387972 -38.25 22.875 C-38.7318942 18.48877932 -38.61654286 14.26672647 -38.25 9.875 C-37.59 9.875 -36.93 9.875 -36.25 9.875 C-36.146875 8.781875 -36.04375 7.68875 -35.9375 6.5625 C-35.25 2.875 -35.25 2.875 -33.8125 0.9375 C-32.25 -0.125 -32.25 -0.125 -30.25 -0.125 C-30.25 -0.785 -30.25 -1.445 -30.25 -2.125 C-20.32030567 -9.21763881 -9.08793659 -7.01953525 0 0 Z " fill="#FAFAFA" transform="translate(173.25,169.125)"/>
<path d="M0 0 C7.58347851 -0.45500871 13.67123943 -0.54787678 20 4 C22.8125 6.5 22.8125 6.5 25 9 C25.53238281 9.57105469 26.06476563 10.14210937 26.61328125 10.73046875 C29.72510926 15.82334783 28.73959057 23.62884299 27.49609375 29.296875 C25.04164726 35.63635964 19.7306381 39.72728962 14 43 C6.47537356 44.03088194 -1.44855082 44.13026144 -8 40 C-10.9375 37.5 -10.9375 37.5 -13 35 C-13 34.01 -13 33.02 -13 32 C-13.66 32 -14.32 32 -15 32 C-16.06723961 28.53777385 -16.10173486 25.35960734 -16.0625 21.75 C-16.04896484 20.13351563 -16.04896484 20.13351563 -16.03515625 18.484375 C-16.02355469 17.66453125 -16.01195312 16.8446875 -16 16 C-15.34 16 -14.68 16 -14 16 C-13.855625 14.72125 -13.71125 13.4425 -13.5625 12.125 C-13.29357254 9.74307106 -13.07773654 8.15547309 -12 6 C-11.34 6 -10.68 6 -10 6 C-10 5.34 -10 4.68 -10 4 C-6.49223216 2.39644899 -3.85645121 1.77963136 0 2 C0 1.34 0 0.68 0 0 Z " fill="#FBFBFB" transform="translate(337,157)"/>
<path d="M0 0 C1.51815699 0.00015911 3.0363194 0.00585313 4.55444336 0.01586914 C5.35208603 0.01728409 6.1497287 0.01869904 6.97154236 0.02015686 C9.52916146 0.02577223 12.08669429 0.03832727 14.64428711 0.05102539 C16.37410356 0.05603841 18.10392137 0.06060166 19.83374023 0.06469727 C24.08312264 0.07574664 28.33244023 0.09302153 32.58178711 0.11352539 C32.58178711 0.77352539 32.58178711 1.43352539 32.58178711 2.11352539 C34.56178711 2.44352539 36.54178711 2.77352539 38.58178711 3.11352539 C38.58178711 3.77352539 38.58178711 4.43352539 38.58178711 5.11352539 C39.34491211 5.21665039 40.10803711 5.31977539 40.89428711 5.42602539 C43.83929995 6.17940077 44.83388067 6.66645637 46.58178711 9.11352539 C47.26928711 11.80102539 47.26928711 11.80102539 47.58178711 14.11352539 C48.24178711 14.11352539 48.90178711 14.11352539 49.58178711 14.11352539 C50.09057011 15.67318757 50.5884218 17.2364178 51.08178711 18.80102539 C51.36022461 19.67114258 51.63866211 20.54125977 51.92553711 21.43774414 C52.58178711 24.11352539 52.58178711 24.11352539 52.58178711 29.11352539 C33.77178711 29.11352539 14.96178711 29.11352539 -4.41821289 29.11352539 C-4.41821289 0.1467373 -4.41821289 0.1467373 0 0 Z " fill="#3082BD" transform="translate(409.418212890625,436.886474609375)"/>
<path d="M0 0 C0.66 0.33 1.32 0.66 2 1 C1.01 1.99 0.02 2.98 -1 4 C-1.33 13.24 -1.66 22.48 -2 32 C-21.14 32 -40.28 32 -60 32 C-60 27.59714577 -59.73734147 25.80043446 -58 22 C-57.34 22 -56.68 22 -56 22 C-55.938125 20.7315625 -55.938125 20.7315625 -55.875 19.4375 C-54.71743446 14.88992111 -52.53064924 12.0576436 -49 9 C-46.125 8.0625 -46.125 8.0625 -44 8 C-44 7.34 -44 6.68 -44 6 C-39.54672363 4.88764315 -35.19551227 4.87145129 -30.63671875 4.90234375 C-29.44874443 4.90446617 -29.44874443 4.90446617 -28.23677063 4.90663147 C-25.72030781 4.91220543 -23.20393569 4.92475307 -20.6875 4.9375 C-18.97591275 4.94251837 -17.26432409 4.94708069 -15.55273438 4.95117188 C-11.36845492 4.96216632 -7.18424281 4.97941293 -3 5 C-2.690625 4.360625 -2.38125 3.72125 -2.0625 3.0625 C-1 1 -1 1 0 0 Z " fill="#3081BD" transform="translate(72,434)"/>
<path d="M0 0 C0.87454834 0.00523682 1.74909668 0.01047363 2.65014648 0.01586914 C3.59438477 0.0190918 4.53862305 0.02231445 5.51147461 0.02563477 C6.50469727 0.03401367 7.49791992 0.04239258 8.52124023 0.05102539 C9.51833008 0.05553711 10.51541992 0.06004883 11.54272461 0.06469727 C14.0147551 0.07652516 16.48675496 0.09446124 18.95874023 0.11352539 C18.95874023 5.39352539 18.95874023 10.67352539 18.95874023 16.11352539 C11.08374023 17.23852539 11.08374023 17.23852539 7.81410217 17.27174377 C7.07244812 17.28153259 6.33079407 17.29132141 5.56666565 17.30140686 C4.77831833 17.30716232 3.98997101 17.31291779 3.17773438 17.31884766 C1.90336014 17.33369705 1.90336014 17.33369705 0.60324097 17.34884644 C-2.1831796 17.38023763 -4.96961717 17.40512963 -7.75610352 17.42993164 C-9.69666467 17.45052053 -11.63722153 17.4715175 -13.57777405 17.49290466 C-18.66908276 17.54792553 -23.7604306 17.59742242 -28.85180664 17.64575195 C-34.0536647 17.69611348 -39.25546641 17.75172285 -44.45727539 17.80688477 C-54.65188863 17.91422166 -64.84655094 18.01572033 -75.04125977 18.11352539 C-71.51644262 15.2899508 -68.81575283 14.41004496 -64.35375977 13.55102539 C-63.11368164 13.30352539 -61.87360352 13.05602539 -60.59594727 12.80102539 C-59.42290039 12.57415039 -58.24985352 12.34727539 -57.04125977 12.11352539 C-51.20112452 10.98159764 -51.20112452 10.98159764 -45.60375977 9.05102539 C-43.04016574 8.11312514 -41.06082465 7.88620124 -38.35375977 7.67602539 C-34.76603177 7.38541414 -31.69530587 6.77437802 -28.29125977 5.61352539 C-23.00862749 3.88329615 -17.86881899 3.62858133 -12.33813477 3.42211914 C-7.87347179 3.00421822 -4.00694727 0.2228478 0 0 Z " fill="#F59336" transform="translate(298.041259765625,359.886474609375)"/>
<path d="M0 0 C0.33 1.32 0.66 2.64 1 4 C0.12684647 4.01030746 -0.74630707 4.02061493 -1.6459198 4.03123474 C-9.92711726 4.12974315 -18.2082525 4.23232668 -26.4893446 4.33933926 C-30.74539583 4.39419841 -35.00145422 4.44755338 -39.25756836 4.49731445 C-43.37492846 4.54551122 -47.49221775 4.59786322 -51.60949135 4.65294075 C-53.17011025 4.67311709 -54.73074836 4.6918663 -56.29140282 4.70907402 C-63.35242278 4.78775649 -70.37864939 4.8935889 -77.41796875 5.51367188 C-85.71799072 6.21975327 -94.0088426 6.12440502 -102.33203125 6.09765625 C-104.06223001 6.09578648 -105.7924293 6.09436523 -107.52262878 6.09336853 C-112.03192662 6.08958729 -116.5411912 6.07979562 -121.05047607 6.06866455 C-125.66971385 6.05835489 -130.28895711 6.05385063 -134.90820312 6.04882812 C-143.93881653 6.0381685 -152.96940548 6.02114624 -162 6 C-162 5.67 -162 5.34 -162 5 C-160.94087402 4.97494385 -159.88174805 4.9498877 -158.79052734 4.92407227 C-154.84314873 4.82956076 -150.89592824 4.72944865 -146.94873047 4.62768555 C-145.2436901 4.58450154 -143.53861108 4.54281553 -141.83349609 4.50268555 C-139.37585833 4.44458028 -136.91841216 4.38100414 -134.4609375 4.31640625 C-133.32620499 4.29133751 -133.32620499 4.29133751 -132.16854858 4.26576233 C-129.17484074 4.18286538 -126.28839779 4.05435062 -123.34161377 3.49900818 C-119.05889249 2.85946301 -114.8726541 2.83128035 -110.54833984 2.81054688 C-109.61398605 2.80225357 -108.67963226 2.79396027 -107.71696472 2.78541565 C-105.69216956 2.76805792 -103.6673548 2.75287955 -101.64252853 2.73963928 C-98.4188312 2.71847354 -95.19522855 2.69145278 -91.97158813 2.66296387 C-85.10609638 2.60337604 -78.24055775 2.55132611 -71.375 2.5 C-63.45993627 2.44036012 -55.54491708 2.3775065 -47.6299324 2.30812073 C-44.48868523 2.28200043 -41.3474325 2.26090227 -38.20614624 2.2401123 C-28.66241106 2.16576375 -19.13442665 1.9916272 -9.60009766 1.54492188 C-8.74449438 1.50675606 -7.88889111 1.46859024 -7.00736046 1.42926788 C-3.18953776 1.57775863 -3.18953776 1.57775863 0 0 Z " fill="#AB9372" transform="translate(317,426)"/>
<path d="M0 0 C-3.22791555 2.1519437 -4.28400809 2.20086443 -8 2 C-8 2.66 -8 3.32 -8 4 C-8.99443115 4.05534912 -9.9888623 4.11069824 -11.01342773 4.16772461 C-14.69062576 4.37362652 -18.36744928 4.58565079 -22.04418945 4.79956055 C-23.63784342 4.89141146 -25.23159497 4.98158481 -26.82543945 5.07006836 C-29.11176635 5.19728394 -31.39767843 5.33045965 -33.68359375 5.46484375 C-34.7586039 5.52272316 -34.7586039 5.52272316 -35.85533142 5.58177185 C-39.21732982 5.512114 -39.21732982 5.512114 -42 7 C-43.83853699 7.1597489 -45.68301569 7.25166053 -47.52734375 7.31640625 C-49.28751831 7.3793689 -49.28751831 7.3793689 -51.08325195 7.44360352 C-52.35515381 7.48283936 -53.62705566 7.5220752 -54.9375 7.5625 C-56.22809326 7.6049585 -57.51868652 7.64741699 -58.84838867 7.69116211 C-71.56475516 8.08799112 -84.27843163 8.10479051 -97 8 C-97 7.67 -97 7.34 -97 7 C-82.26410649 4.20175315 -67.78681526 3.38307165 -52.8125 3 C-38.57692811 2.63282322 -24.59279834 1.96796113 -10.48384094 -0.07177734 C-9.54388779 -0.20535645 -8.60393463 -0.33893555 -7.63549805 -0.4765625 C-6.81002975 -0.60111816 -5.98456146 -0.72567383 -5.13407898 -0.85400391 C-3 -1 -3 -1 0 0 Z " fill="#288BD6" transform="translate(428,352)"/>
<path d="M0 0 C16.00266465 -0.023338 32.00532379 -0.04098362 48.00800133 -0.05181217 C55.43795719 -0.05697321 62.86790248 -0.06401226 70.29785156 -0.07543945 C76.77215762 -0.08539215 83.24645603 -0.09185483 89.72076952 -0.09408849 C93.15033643 -0.0953946 96.57988146 -0.09847418 100.00944138 -0.10573006 C103.83360969 -0.11375552 107.6577564 -0.11399076 111.48193359 -0.11352539 C112.62488388 -0.11712067 113.76783417 -0.12071594 114.94541931 -0.12442017 C116.50195473 -0.12235817 116.50195473 -0.12235817 118.0899353 -0.12025452 C118.99513601 -0.12117631 119.90033672 -0.1220981 120.83296776 -0.12304783 C123 0 123 0 125 1 C125.484375 2.9609375 125.484375 2.9609375 125.75 5.375 C125.84796875 6.16648437 125.9459375 6.95796875 126.046875 7.7734375 C126 10 126 10 124 13 C123.505 8.545 123.505 8.545 123 4 C111.70871534 3.65330903 100.41705248 3.32070276 89.125 3 C88.28888435 2.9762455 87.45276871 2.952491 86.59131622 2.92801666 C57.38622935 2.10300625 28.21808046 1.72849532 -1 2 C-0.67 1.34 -0.34 0.68 0 0 Z " fill="#B6DAF3" transform="translate(171,278)"/>
<path d="M0 0 C0.66 0 1.32 0 2 0 C2.125 7.625 2.125 7.625 1 11 C0.34 11 -0.32 11 -1 11 C-1.33 11.99 -1.66 12.98 -2 14 C-2.66 14 -3.32 14 -4 14 C-4.33 14.99 -4.66 15.98 -5 17 C-6.32 17 -7.64 17 -9 17 C-9 17.66 -9 18.32 -9 19 C-12.96 19 -16.92 19 -21 19 C-21.33 17.68 -21.66 16.36 -22 15 C-16.375 10 -16.375 10 -13 10 C-13 9.34 -13 8.68 -13 8 C-11.35 7.67 -9.7 7.34 -8 7 C-8 6.34 -8 5.68 -8 5 C-6.20963542 3.99088542 -4.41927083 2.98177083 -2.62890625 1.97265625 C-1.02121854 1.1027487 -1.02121854 1.1027487 0 0 Z " fill="#0D67A3" transform="translate(416,37)"/>
<path d="M0 0 C3.82700318 0.77498812 5.32381923 2.1511624 8 5 C8.99 5.66 9.98 6.32 11 7 C11 7.66 11 8.32 11 9 C11.53625 9.2475 12.0725 9.495 12.625 9.75 C15.67634871 11.355973 18.32190558 12.79801125 21 15 C21.875 18.75 21.875 18.75 22 22 C21.67 21.34 21.34 20.68 21 20 C20.40832031 20.02320312 19.81664063 20.04640625 19.20703125 20.0703125 C10.77160817 20.2629649 10.77160817 20.2629649 7 18 C5.61423077 16.37667033 4.27358732 14.71275535 3 13 C2.34 12.67 1.68 12.34 1 12 C0.03929566 9.11788698 -0.10581883 7.30149956 -0.0625 4.3125 C-0.05347656 3.50425781 -0.04445312 2.69601563 -0.03515625 1.86328125 C-0.02355469 1.24839844 -0.01195312 0.63351563 0 0 Z " fill="#0F639C" transform="translate(41,41)"/>
<path d="M0 0 C1.41942621 0.32137952 2.83736684 0.649967 4.25 1 C4.25 1.66 4.25 2.32 4.25 3 C4.97058594 3.09023437 5.69117188 3.18046875 6.43359375 3.2734375 C12.15896125 4.75043938 17.24157123 9.36297902 20.78515625 14.015625 C22.14970632 16.34367458 23.25 18.25767055 23.25 21 C22.59 21 21.93 21 21.25 21 C21.35441406 22.23363281 21.35441406 22.23363281 21.4609375 23.4921875 C21.87702776 32.07157246 20.43991595 37.15734296 15.25 44 C14.26 43.505 14.26 43.505 13.25 43 C13.889375 41.948125 14.52875 40.89625 15.1875 39.8125 C19.17091161 32.78874596 19.05043217 24.97304187 17.20703125 17.21484375 C15.07821447 12.28815349 10.5692341 9.15961705 5.8828125 6.81640625 C2.77755156 5.85349893 0.18215515 5.8036889 -3.0625 5.875 C-4.13113281 5.89304688 -5.19976562 5.91109375 -6.30078125 5.9296875 C-7.51314453 5.96449219 -7.51314453 5.96449219 -8.75 6 C-8.75 5.34 -8.75 4.68 -8.75 4 C-4.79 4 -0.83 4 3.25 4 C3.25 3.34 3.25 2.68 3.25 2 C-4.67 1.67 -12.59 1.34 -20.75 1 C-14.85541741 -2.92972173 -6.69977001 -1.33804251 0 0 Z " fill="#888888" transform="translate(159.75,158)"/>
<path d="M0 0 C-0.33 0.66 -0.66 1.32 -1 2 C-1.95890137 2.02505615 -2.91780273 2.0501123 -3.90576172 2.07592773 C-7.45798477 2.1699862 -11.01001156 2.27021058 -14.56201172 2.37231445 C-16.10037653 2.41566926 -17.63878963 2.45734395 -19.17724609 2.49731445 C-21.3865414 2.55500398 -23.59559348 2.61870179 -25.8046875 2.68359375 C-26.49432587 2.70030624 -27.18396423 2.71701874 -27.89450073 2.73423767 C-31.57114264 2.80806995 -31.57114264 2.80806995 -35 4 C-37.24664431 4.09202122 -39.49610433 4.11749805 -41.74462891 4.11352539 C-42.78382225 4.11374443 -42.78382225 4.11374443 -43.8440094 4.1139679 C-46.13822541 4.11327018 -48.43236064 4.10548442 -50.7265625 4.09765625 C-52.31554113 4.09579157 -53.90452034 4.0943679 -55.49349976 4.09336853 C-59.67909325 4.08954731 -63.86465213 4.07972039 -68.05023193 4.06866455 C-72.31994153 4.05844194 -76.5896567 4.05386909 -80.859375 4.04882812 C-89.23959923 4.03809778 -97.61979531 4.02102608 -106 4 C-106.33 3.01 -106.66 2.02 -107 1 C-106.01 1.33 -105.02 1.66 -104 2 C-102.06290181 2.09370168 -100.1227122 2.12792952 -98.18334961 2.12939453 C-96.3915049 2.13412277 -96.3915049 2.13412277 -94.5634613 2.13894653 C-93.27279251 2.1369223 -91.98212372 2.13489807 -90.65234375 2.1328125 C-89.31620771 2.13348611 -87.98007178 2.13445662 -86.64393616 2.13571167 C-83.84553865 2.13718544 -81.04717309 2.13504405 -78.2487793 2.13037109 C-74.65846438 2.12466846 -71.06822414 2.12795819 -67.47791195 2.13394356 C-64.71988866 2.13755312 -61.96188315 2.13640886 -59.20385933 2.13381577 C-57.23510311 2.13282272 -55.26634621 2.13586366 -53.29759216 2.13894653 C-51.51047569 2.13421829 -51.51047569 2.13421829 -49.68725586 2.12939453 C-48.63485214 2.12859894 -47.58244843 2.12780334 -46.49815369 2.12698364 C-44.00068609 2.16752261 -44.00068609 2.16752261 -42 1 C-39.54238542 0.84334896 -37.10873252 0.74164581 -34.6484375 0.68359375 C-33.54914413 0.6524221 -33.54914413 0.6524221 -32.42764282 0.62062073 C-30.07685818 0.55519199 -27.72595616 0.49640614 -25.375 0.4375 C-23.8137908 0.39428594 -22.25259265 0.35067073 -20.69140625 0.30664062 C-19.17709312 0.26526535 -17.6627704 0.22423901 -16.1484375 0.18359375 C-15.4522934 0.16485703 -14.75614929 0.1461203 -14.03890991 0.1268158 C-9.35735995 0.01011124 -4.68251357 -0.01539223 0 0 Z " fill="#6EB5E5" transform="translate(372,233)"/>
<path d="M0 0 C3.15551883 6.31103767 3.14974914 12.19429183 3.1328125 19.09765625 C3.13376923 19.96837265 3.13472595 20.83908905 3.13571167 21.7361908 C3.13639021 23.57599968 3.13455869 25.41581099 3.13037109 27.25561523 C3.12506374 30.02919099 3.13030359 32.80260142 3.13671875 35.57617188 C3.1482105 57.81895979 3.1482105 57.81895979 2 64 C1.01 64.495 1.01 64.495 0 65 C0.03029297 64.4330542 0.06058594 63.8661084 0.09179688 63.28198242 C0.77754634 50.17493633 1.13639776 37.12449577 1 24 C0.34 24 -0.32 24 -1 24 C-0.67 16.08 -0.34 8.16 0 0 Z " fill="#1F7DBA" transform="translate(449,238)"/>
<path d="M0 0 C1.51013672 -0.00193359 1.51013672 -0.00193359 3.05078125 -0.00390625 C4.09621094 -0.00003906 5.14164062 0.00382813 6.21875 0.0078125 C7.78689453 0.00201172 7.78689453 0.00201172 9.38671875 -0.00390625 C10.39347656 -0.00261719 11.40023438 -0.00132812 12.4375 0 C13.35466797 0.00112793 14.27183594 0.00225586 15.21679688 0.00341797 C17.52954015 0.12302706 19.50404551 0.48070507 21.71875 1.1328125 C21.71875 1.7928125 21.71875 2.4528125 21.71875 3.1328125 C22.37875 3.1328125 23.03875 3.1328125 23.71875 3.1328125 C23.71875 3.7928125 23.71875 4.4528125 23.71875 5.1328125 C24.275625 5.2359375 24.8325 5.3390625 25.40625 5.4453125 C28.35061352 6.32066382 30.31609546 7.18471422 32.71875 9.1328125 C33.53125 12.8203125 33.53125 12.8203125 33.71875 16.1328125 C32.6978125 14.988125 32.6978125 14.988125 31.65625 13.8203125 C25.04821043 7.77465928 18.36088499 7.54434274 9.71875 7.1328125 C9.71875 7.7928125 9.71875 8.4528125 9.71875 9.1328125 C7.40875 9.4628125 5.09875 9.7928125 2.71875 10.1328125 C3.71875 8.1328125 3.71875 8.1328125 5.82421875 7.015625 C9.34736239 5.94108996 12.35377193 5.93907459 16.03125 6.0078125 C17.28550781 6.02585938 18.53976562 6.04390625 19.83203125 6.0625 C21.26095703 6.09730469 21.26095703 6.09730469 22.71875 6.1328125 C22.71875 5.4728125 22.71875 4.8128125 22.71875 4.1328125 C22.14125 3.9884375 21.56375 3.8440625 20.96875 3.6953125 C19.58647677 3.34974419 18.20758308 2.98981299 16.83544922 2.60595703 C14.68678399 2.12566716 12.79988768 2.00356788 10.6015625 2 C9.82941406 1.99871094 9.05726563 1.99742187 8.26171875 1.99609375 C7.06482422 2.00189453 7.06482422 2.00189453 5.84375 2.0078125 C5.05355469 2.00394531 4.26335937 2.00007812 3.44921875 1.99609375 C-0.9064462 2.00334111 -4.99285502 2.26410226 -9.28125 3.1328125 C-9.28125 2.4728125 -9.28125 1.8128125 -9.28125 1.1328125 C-6.12435707 0.20328291 -3.28538633 0.00404036 0 0 Z " fill="#A2A2A2" transform="translate(327.28125,149.8671875)"/>
<path d="M0 0 C0 0.33 0 0.66 0 1 C-3.83724172 1.90413673 -7.37502274 2.10576898 -11.3125 2.0625 C-12.91544922 2.04896484 -12.91544922 2.04896484 -14.55078125 2.03515625 C-15.35902344 2.02355469 -16.16726563 2.01195312 -17 2 C-17 2.66 -17 3.32 -17 4 C-24.54922814 5.02540318 -31.95090843 5.11725965 -39.5625 5.0625 C-40.76197266 5.05798828 -41.96144531 5.05347656 -43.19726562 5.04882812 C-46.13156359 5.03713769 -49.06575449 5.02075138 -52 5 C-52 4.67 -52 4.34 -52 4 C-34.7752516 0.70031928 -17.51970986 -0.12514078 0 0 Z " fill="#308AC7" transform="translate(383,355)"/>
<path d="M0 0 C2.4375 0.75 2.4375 0.75 4.4375 2.75 C4.6875 5.25 4.6875 5.25 4.4375 7.75 C2.4375 9.75 2.4375 9.75 -0.5625 10 C-3.5625 9.75 -3.5625 9.75 -5.5625 7.75 C-5.875 4.75 -5.875 4.75 -5.5625 1.75 C-2.5625 -0.25 -2.5625 -0.25 0 0 Z " fill="#E9E9E9" transform="translate(138.5625,202.25)"/>
<path d="M0 0 C0.66 0 1.32 0 2 0 C2 0.66 2 1.32 2 2 C2.639375 2.268125 3.27875 2.53625 3.9375 2.8125 C6 4 6 4 7 7 C10.3 7 13.6 7 17 7 C14.69 5.02 12.38 3.04 10 1 C13.83538896 1 15.45378126 2.20442817 18.48046875 4.421875 C20.928081 6.96386818 20.93327604 9.59707815 21 13 C20.67 12.34 20.34 11.68 20 11 C19.11248047 11.03480469 19.11248047 11.03480469 18.20703125 11.0703125 C9.77160817 11.2629649 9.77160817 11.2629649 6 9 C4.61423077 7.37667033 3.27358732 5.71275535 2 4 C1.34 3.67 0.68 3.34 0 3 C0 2.01 0 1.02 0 0 Z " fill="#056CB2" transform="translate(42,50)"/>
<path d="M0 0 C6.15234375 -0.09765625 6.15234375 -0.09765625 8 0 C9 1 9 1 9.125 3.9375 C9 7 9 7 8 9 C5.125 9.125 5.125 9.125 2 9 C0 7 0 7 -0.125 3.375 C-0.08375 2.26125 -0.0425 1.1475 0 0 Z " fill="#EFEFEF" transform="translate(319,196)"/>
<path d="M0 0 C2.22574335 0.22451458 4.45581519 0.40782878 6.6875 0.5625 C7.86699219 0.64628906 9.04648437 0.73007812 10.26171875 0.81640625 C11.61716797 0.90728516 11.61716797 0.90728516 13 1 C13 1.33 13 1.66 13 2 C1.05174485 3.92270773 -11.00132623 3.0353247 -23 2 C-23 1.67 -23 1.34 -23 1 C-19.73025053 0.63530576 -16.45911086 0.28506661 -13.1875 -0.0625 C-11.7943457 -0.2181543 -11.7943457 -0.2181543 -10.37304688 -0.37695312 C-9.48037109 -0.47041016 -8.58769531 -0.56386719 -7.66796875 -0.66015625 C-6.84578857 -0.74918213 -6.0236084 -0.83820801 -5.17651367 -0.92993164 C-3 -1 -3 -1 0 0 Z " fill="#3D86B7" transform="translate(325,357)"/>
<path d="M0 0 C-3.22791555 2.1519437 -4.28400809 2.20086443 -8 2 C-8 2.66 -8 3.32 -8 4 C-10.2277397 4.22307542 -12.45731364 4.42788178 -14.6875 4.625 C-16.54955078 4.79902344 -16.54955078 4.79902344 -18.44921875 4.9765625 C-21.92880169 4.99953004 -23.92484721 4.54051631 -27 3 C-27 2.67 -27 2.34 -27 2 C-23.06390652 1.46814367 -19.12597366 0.9514091 -15.1875 0.4375 C-14.06794922 0.28603516 -12.94839844 0.13457031 -11.79492188 -0.02148438 C-10.72177734 -0.16005859 -9.64863281 -0.29863281 -8.54296875 -0.44140625 C-7.55321045 -0.57232666 -6.56345215 -0.70324707 -5.54370117 -0.83813477 C-3 -1 -3 -1 0 0 Z " fill="#268BD0" transform="translate(428,352)"/>
<path d="M0 0 C0.33 0 0.66 0 1 0 C2.65766705 5.07717373 3.318943 9.66909375 3.3359375 15.0234375 C3.3425943 15.76904938 3.3492511 16.51466125 3.35610962 17.28286743 C3.36617547 18.85098832 3.37092853 20.41915152 3.37060547 21.98730469 C3.37497618 24.36205938 3.41134989 26.73494841 3.44921875 29.109375 C3.56741937 44.8914387 3.56741937 44.8914387 -1 51 C-1.99 51.66 -2.98 52.32 -4 53 C-3.731875 52.505 -3.46375 52.01 -3.1875 51.5 C-2.795625 50.675 -2.40375 49.85 -2 49 C-1.48566406 47.96746094 -0.97132813 46.93492187 -0.44140625 45.87109375 C1.82975665 39.75765434 1.3729112 33.20656646 1.28125 26.77954102 C1.24973381 24.54361505 1.24023577 22.30839304 1.234375 20.07226562 C1.85009541 13.537401 1.85009541 13.537401 0 8 C-0.14115161 5.32941149 -0.04247107 2.67567762 0 0 Z " fill="#8EC5EA" transform="translate(387,178)"/>
<path d="M0 0 C3.22862776 0.48429416 6.24738425 1.07558963 9.375 2.03125 C15.33802398 3.54124156 21.39127079 3.21226756 27.5 3.125 C28.70398438 3.11597656 29.90796875 3.10695313 31.1484375 3.09765625 C34.0991679 3.07423775 37.04947689 3.04143993 40 3 C40 3.66 40 4.32 40 5 C27.28285729 6.33114017 14.30568259 7.1018942 2 3 C2 2.34 2 1.68 2 1 C1.34 0.67 0.68 0.34 0 0 Z " fill="#60AFE8" transform="translate(208,329)"/>
<path d="M0 0 C0.66 0 1.32 0 2 0 C2 1.32 2 2.64 2 4 C2.66 4 3.32 4 4 4 C6.13060547 13.8540503 5.32391009 23.50093585 2 33 C1.34 33.66 0.68 34.32 0 35 C0.33 31.7 0.66 28.4 1 25 C1.66 25 2.32 25 3 25 C3 19.39 3 13.78 3 8 C2.34 8 1.68 8 1 8 C0.67 5.36 0.34 2.72 0 0 Z " fill="#A8A8A8" transform="translate(369,173)"/>
<path d="M0 0 C0.495 1.98 0.495 1.98 1 4 C-10.22 4 -21.44 4 -33 4 C-33 3.67 -33 3.34 -33 3 C-32.03586182 2.94465088 -31.07172363 2.88930176 -30.07836914 2.83227539 C-26.51297942 2.62636372 -22.94797513 2.41434216 -19.38305664 2.20043945 C-17.83790808 2.10859212 -16.2926591 2.01841863 -14.74731445 1.92993164 C-12.53047826 1.80270699 -10.31406885 1.66953438 -8.09765625 1.53515625 C-7.4028566 1.49656998 -6.70805695 1.4579837 -5.99220276 1.41822815 C-2.71052724 1.47227354 -2.71052724 1.47227354 0 0 Z " fill="#A4977F" transform="translate(317,426)"/>
<path d="M0 0 C0.96904891 2.61643204 1.1300893 3.68346274 0.04931641 6.31323242 C-1.05582829 9.14294797 -1.30801319 11.27837583 -1.4140625 14.30078125 C-1.45273438 15.27724609 -1.49140625 16.25371094 -1.53125 17.25976562 C-1.5621875 18.26716797 -1.593125 19.27457031 -1.625 20.3125 C-1.66367188 21.33923828 -1.70234375 22.36597656 -1.7421875 23.42382812 C-1.83614897 25.94904265 -1.9218154 28.47425592 -2 31 C-2.33 31 -2.66 31 -3 31 C-5.06464667 21.7669001 -4.28528611 12.14114443 -2 3 C-1.34 2.01 -0.68 1.02 0 0 Z " fill="#6D6D6D" transform="translate(113,177)"/>
<path d="M0 0 C0 2.83967231 -0.40267181 5.23735711 -1 8 C-1.66 8 -2.32 8 -3 8 C-3 16.25 -3 24.5 -3 33 C-5 31 -5 31 -5.24291992 28.92456055 C-5.23881104 28.08707275 -5.23470215 27.24958496 -5.23046875 26.38671875 C-5.22853516 25.46826172 -5.22660156 24.54980469 -5.22460938 23.60351562 C-5.21236328 22.64123047 -5.20011719 21.67894531 -5.1875 20.6875 C-5.18685547 19.73681641 -5.18621094 18.78613281 -5.18554688 17.80664062 C-5.15771666 13.38163706 -4.9699385 9.33303698 -4 5 C-3.34 5 -2.68 5 -2 5 C-1.7834375 4.0409375 -1.7834375 4.0409375 -1.5625 3.0625 C-1 1 -1 1 0 0 Z " fill="#969696" transform="translate(299,169)"/>
<path d="M0 0 C0 0.66 0 1.32 0 2 C-0.99 2 -1.98 2 -3 2 C-3.25910156 2.58394531 -3.51820313 3.16789063 -3.78515625 3.76953125 C-5.08738963 6.16044848 -6.50827548 7.77487096 -8.4375 9.6875 C-9.03433594 10.28949219 -9.63117188 10.89148438 -10.24609375 11.51171875 C-12 13 -12 13 -15 14 C-14.1875 11.5625 -14.1875 11.5625 -13 9 C-12.01 8.67 -11.02 8.34 -10 8 C-9.731875 7.401875 -9.46375 6.80375 -9.1875 6.1875 C-7.36264026 2.82591626 -3.94410865 0 0 0 Z " fill="#7D7D7D" transform="translate(315,155)"/>
<path d="M0 0 C6.875 0.875 6.875 0.875 8 2 C9.56172745 2.08685603 11.12729344 2.10702219 12.69140625 2.09765625 C13.63564453 2.09443359 14.57988281 2.09121094 15.55273438 2.08789062 C16.54595703 2.07951172 17.53917969 2.07113281 18.5625 2.0625 C19.55958984 2.05798828 20.55667969 2.05347656 21.58398438 2.04882812 C24.05604849 2.03700007 26.52799518 2.02051849 29 2 C29 2.66 29 3.32 29 4 C25.10430865 4.08732726 21.20887018 4.14050185 17.3125 4.1875 C16.20970703 4.21263672 15.10691406 4.23777344 13.97070312 4.26367188 C12.90400391 4.27333984 11.83730469 4.28300781 10.73828125 4.29296875 C9.75899658 4.3086792 8.77971191 4.32438965 7.77075195 4.34057617 C4.52615413 3.94175566 2.63373616 2.89925678 0 1 C0 0.67 0 0.34 0 0 Z " fill="#A6A6A6" transform="translate(317,225)"/>
<path d="M0 0 C1 3 1 3 0 6 C-4.45714286 10 -4.45714286 10 -7 10 C-7.33 10.99 -7.66 11.98 -8 13 C-8.66 13 -9.32 13 -10 13 C-8.5 10 -8.5 10 -7 7 C-6.34 7 -5.68 7 -5 7 C-5 6.34 -5 5.68 -5 5 C-3.37446717 3.29319053 -1.70884005 1.62339805 0 0 Z " fill="#1C8FD7" transform="translate(439,336)"/>
<path d="M0 0 C0.66 0 1.32 0 2 0 C3.99118241 4.97011673 4.24845695 9.12333135 4.125 14.375 C4.11597656 15.11105469 4.10695312 15.84710938 4.09765625 16.60546875 C4.07430144 18.4037888 4.03843836 20.20193911 4 22 C3.34 22.33 2.68 22.66 2 23 C2.03480469 21.89205078 2.03480469 21.89205078 2.0703125 20.76171875 C2.19786295 13.59156136 1.54331505 7.00003611 0 0 Z " fill="#C9C9C9" transform="translate(185,182)"/>
<path d="M0 0 C1.9375 0.75 1.9375 0.75 4 2 C4.75 4.125 4.75 4.125 5 6 C4.34 6 3.68 6 3 6 C3 10.29 3 14.58 3 19 C2.34 19.33 1.68 19.66 1 20 C1.01740234 18.83984375 1.01740234 18.83984375 1.03515625 17.65625 C1.08709845 11.66063636 0.91184156 5.92697017 0 0 Z " fill="#6E6E6E" transform="translate(178,173)"/>
<path d="M0 0 C3.83286936 0.54755277 5.40098264 2.2333041 8 5 C8.99 5.66 9.98 6.32 11 7 C10.67 7.66 10.34 8.32 10 9 C7.36 7.35 4.72 5.7 2 4 C2 5.32 2 6.64 2 8 C1.34 8 0.68 8 0 8 C0 5.36 0 2.72 0 0 Z " fill="#086DB0" transform="translate(41,41)"/>
<path d="M0 0 C1.1725131 0.95117134 2.33787015 1.91117009 3.5 2.875 C4.47453125 3.67550781 4.47453125 3.67550781 5.46875 4.4921875 C6.22671875 5.23855469 6.22671875 5.23855469 7 6 C7 6.66 7 7.32 7 8 C7.66 8.33 8.32 8.66 9 9 C8.34 9 7.68 9 7 9 C6.67 9.99 6.34 10.98 6 12 C5.71125 11.38125 5.4225 10.7625 5.125 10.125 C4.06279958 7.86674235 4.06279958 7.86674235 2 6 C-0.58354218 5.83312552 -0.58354218 5.83312552 -3 6 C-3 5.34 -3 4.68 -3 4 C-1.68 4 -0.36 4 1 4 C0.67 2.68 0.34 1.36 0 0 Z " fill="#838383" transform="translate(138,197)"/>
<path d="M0 0 C-1.38188453 3.21043882 -2.92421903 5.04936365 -5.625 7.25 C-6.57246094 8.03117188 -6.57246094 8.03117188 -7.5390625 8.828125 C-8.02117187 9.21484375 -8.50328125 9.6015625 -9 10 C-8.75 7.625 -8.75 7.625 -8 5 C-5.9375 3.6875 -5.9375 3.6875 -4 3 C-4 2.34 -4 1.68 -4 1 C-2 0 -2 0 0 0 Z " fill="#CCCCCC" transform="translate(147,166)"/>
<path d="M0 0 C1.33332095 2.6666419 0.67102033 4.16680303 0 7 C-0.66 7 -1.32 7 -2 7 C-1.67 11.62 -1.34 16.24 -1 21 C-1.66 21 -2.32 21 -3 21 C-3 15.39 -3 9.78 -3 4 C-2.34 4 -1.68 4 -1 4 C-0.67 2.68 -0.34 1.36 0 0 Z " fill="#9C9C9C" transform="translate(323,166)"/>
<path d="M0 0 C0.92039062 0.70962891 0.92039062 0.70962891 1.859375 1.43359375 C2.31828125 1.80613281 2.7771875 2.17867187 3.25 2.5625 C2.26 3.0575 2.26 3.0575 1.25 3.5625 C0.59444881 6.08983235 0.59444881 6.08983235 0.25 8.5625 C-0.41 8.2325 -1.07 7.9025 -1.75 7.5625 C-1.75 5.5825 -1.75 3.6025 -1.75 1.5625 C-4.06 1.2325 -6.37 0.9025 -8.75 0.5625 C-7.75 -1.4375 -7.75 -1.4375 -5.921875 -2.21484375 C-3.0795641 -2.50623174 -2.21112044 -1.74338343 0 0 Z " fill="#898989" transform="translate(328.75,195.4375)"/>
<path d="M0 0 C0.66 0 1.32 0 2 0 C2 2.64 2 5.28 2 8 C1.34 7.34 0.68 6.68 0 6 C0 5.01 0 4.02 0 3 C-2.31 4.32 -4.62 5.64 -7 7 C-7.33 6.34 -7.66 5.68 -8 5 C-6.20963542 3.99088542 -4.41927083 2.98177083 -2.62890625 1.97265625 C-1.02121854 1.1027487 -1.02121854 1.1027487 0 0 Z " fill="#076EB2" transform="translate(416,37)"/>
<path d="M0 0 C0.99 0 1.98 0 3 0 C2.66226563 0.54140625 2.32453125 1.0828125 1.9765625 1.640625 C0.74727187 4.61059117 0.99718192 6.57632809 1.375 9.75 C1.48585937 10.73484375 1.59671875 11.7196875 1.7109375 12.734375 C1.85402344 13.85585938 1.85402344 13.85585938 2 15 C0 14 0 14 -0.6171875 12.23046875 C-1.0201033 9.88286751 -1.13287113 7.69351532 -1.125 5.3125 C-1.12757813 4.52488281 -1.13015625 3.73726563 -1.1328125 2.92578125 C-1 1 -1 1 0 0 Z " fill="#CEE6F7" transform="translate(169,280)"/>
<path d="M0 0 C5.42857143 -0.36190476 5.42857143 -0.36190476 7.875 1.1875 C9.34781139 3.56036279 9.22223194 5.25913944 9 8 C7.88625 6.824375 7.88625 6.824375 6.75 5.625 C4.45566682 3.43495469 2.87841142 2.17268614 0 1 C0 0.67 0 0.34 0 0 Z " fill="#898989" transform="translate(352,158)"/>
<path d="M0 0 C-3.22791555 2.1519437 -4.28400809 2.20086443 -8 2 C-8 2.66 -8 3.32 -8 4 C-8.99 4 -9.98 4 -11 4 C-10.375 2.0625 -10.375 2.0625 -9 0 C-5.41410857 -0.99184231 -3.55287397 -1.18429132 0 0 Z " fill="#207CCB" transform="translate(428,352)"/>
<path d="M0 0 C0.33 1.32 0.66 2.64 1 4 C-2.40388303 4.98316039 -5.72259589 5.29411056 -9.25 5.5625 C-10.32765625 5.64628906 -11.4053125 5.73007812 -12.515625 5.81640625 C-13.74539063 5.90728516 -13.74539063 5.90728516 -15 6 C-11.19257189 3.46171459 -7.86481921 3.21897605 -3.3984375 2.5625 C-2.60695313 2.376875 -1.81546875 2.19125 -1 2 C-0.67 1.34 -0.34 0.68 0 0 Z " fill="#2E85BD" transform="translate(428,347)"/>
<path d="M0 0 C0 2.83967231 -0.40267181 5.23735711 -1 8 C-1.66 8 -2.32 8 -3 8 C-3.33 9.98 -3.66 11.96 -4 14 C-5.10844919 10.67465243 -4.84454356 8.37817425 -4 5 C-3.34 5 -2.68 5 -2 5 C-1.7834375 4.0409375 -1.7834375 4.0409375 -1.5625 3.0625 C-1 1 -1 1 0 0 Z " fill="#B4B4B4" transform="translate(299,169)"/>
<path d="M0 0 C0.66 0 1.32 0 2 0 C2 0.66 2 1.32 2 2 C1.34 2 0.68 2 0 2 C-0.33 2.99 -0.66 3.98 -1 5 C-1.66 5 -2.32 5 -3 5 C-3.33 5.99 -3.66 6.98 -4 8 C-4.99 7.67 -5.98 7.34 -7 7 C-4.66666667 4.66666667 -2.33333333 2.33333333 0 0 Z " fill="#0667AD" transform="translate(415,46)"/>
<path d="M0 0 C1.875 0.5 1.875 0.5 4 2 C4.98494554 4.65177645 5.45912382 7.20547307 6 10 C5.34 9.67 4.68 9.34 4 9 C4 8.34 4 7.68 4 7 C3.34 7 2.68 7 2 7 C1.34 4.69 0.68 2.38 0 0 Z " fill="#8C8C7F" transform="translate(232,205)"/>
<path d="M0 0 C0.33 0 0.66 0 1 0 C2.7479503 5.24385089 3.19392201 9.47322267 3 15 C2.67 15 2.34 15 2 15 C0.2520497 9.75614911 -0.19392201 5.52677733 0 0 Z " fill="#83BFE7" transform="translate(387,178)"/>
<path d="M0 0 C0.66 0.33 1.32 0.66 2 1 C-1.28804981 3.91227269 -3.59885603 5.49701212 -8 6 C-7.34 5.01 -6.68 4.02 -6 3 C-5.01 3 -4.02 3 -3 3 C-3 2.34 -3 1.68 -3 1 C-2.01 0.67 -1.02 0.34 0 0 Z " fill="#066FB5" transform="translate(406,44)"/>
<path d="M0 0 C-0.99 0.33 -1.98 0.66 -3 1 C-3 1.66 -3 2.32 -3 3 C-5.31 3.33 -7.62 3.66 -10 4 C-10 3.34 -10 2.68 -10 2 C-8.68 2 -7.36 2 -6 2 C-6 1.34 -6 0.68 -6 0 C-2.25 -1.125 -2.25 -1.125 0 0 Z " fill="#95CAEF" transform="translate(265,326)"/>
<path d="M0 0 C1.75 0.125 1.75 0.125 4 1 C6.25 4.0625 6.25 4.0625 8 7 C7.01 7 6.02 7 5 7 C5 6.34 5 5.68 5 5 C4.34 5 3.68 5 3 5 C1.375 3.625 1.375 3.625 0 2 C0 1.34 0 0.68 0 0 Z " fill="#85C2ED" transform="translate(183,313)"/>
<path d="M0 0 C0.95465783 2.16967689 1.14401212 3.56328793 0.3984375 5.82421875 C-0.35870385 7.5684743 -1.17609198 9.28627131 -2 11 C-2.95465783 8.83032311 -3.14401212 7.43671207 -2.3984375 5.17578125 C-1.64129615 3.4315257 -0.82390802 1.71372869 0 0 Z " fill="#989898" transform="translate(113,177)"/>
<path d="M0 0 C1.98 0.99 1.98 0.99 4 2 C4 2.66 4 3.32 4 4 C4.66 4 5.32 4 6 4 C5 6 5 6 3 7 C0 2.25 0 2.25 0 0 Z " fill="#6C6C6C" transform="translate(360,162)"/>
</svg>
